<svg width="92" height="92" viewBox="0 0 92 92" fill="none" xmlns="http://www.w3.org/2000/svg">
<circle cx="46" cy="46" r="46" fill="#BCCEFF"/>
<circle cx="46" cy="46" r="37" fill="#3661D6" stroke="white" stroke-width="2"/>
<g clip-path="url(#clip0)">
<path d="M58 70C57.868 70 57.736 69.974 57.612 69.922C57.136 69.72 46 64.908 46 55.072V46.714C46 46.284 46.274 45.904 46.68 45.766L57.68 42.052C57.888 41.982 58.114 41.982 58.32 42.052L69.32 45.766C69.726 45.902 70 46.284 70 46.714V55.072C70 64.908 58.864 69.72 58.388 69.922C58.264 69.974 58.132 70 58 70ZM48 47.434V55.072C48 62.64 56.11 66.988 58 67.898C59.888 66.986 68 62.62 68 55.072V47.434L58 44.056L48 47.434Z" fill="white"/>
<path d="M57 60C56.982 60 56.962 60 56.946 59.998C56.66 59.982 56.398 59.848 56.22 59.624L52.22 54.624C51.876 54.192 51.944 53.564 52.376 53.218C52.81 52.878 53.436 52.946 53.782 53.374L57.082 57.5L63.292 51.292C63.682 50.902 64.316 50.902 64.706 51.292C65.096 51.682 65.096 52.316 64.706 52.706L57.706 59.706C57.52 59.894 57.264 60 57 60Z" fill="white"/>
<path d="M59 38H29C25.14 38 22 34.86 22 31C22 27.14 25.14 24 29 24H59C62.86 24 66 27.14 66 31C66 34.86 62.86 38 59 38ZM29 26C26.242 26 24 28.242 24 31C24 33.758 26.242 36 29 36H59C61.758 36 64 33.758 64 31C64 28.242 61.758 26 59 26H29Z" fill="white"/>
<path d="M31 34C29.346 34 28 32.654 28 31C28 29.346 29.346 28 31 28C32.654 28 34 29.346 34 31C34 32.654 32.654 34 31 34ZM31 30C30.45 30 30 30.45 30 31C30 31.55 30.45 32 31 32C31.55 32 32 31.55 32 31C32 30.45 31.55 30 31 30Z" fill="white"/>
<path d="M41 34C39.346 34 38 32.654 38 31C38 29.346 39.346 28 41 28C42.654 28 44 29.346 44 31C44 32.654 42.654 34 41 34ZM41 30C40.45 30 40 30.45 40 31C40 31.55 40.45 32 41 32C41.55 32 42 31.55 42 31C42 30.45 41.55 30 41 30Z" fill="white"/>
<path d="M41 50H29C25.14 50 22 46.86 22 43C22 41.132 22.728 39.376 24.052 38.052C25.376 36.728 27.132 36 29 36H59C60.564 36 62.038 36.502 63.256 37.452C63.692 37.792 63.77 38.42 63.43 38.856C63.09 39.29 62.462 39.368 62.026 39.03C61.162 38.356 60.116 38 59 38H29C27.668 38 26.412 38.522 25.466 39.466C24.52 40.41 24 41.668 24 43C24 45.758 26.242 48 29 48H41C41.552 48 42 48.448 42 49C42 49.552 41.552 50 41 50Z" fill="white"/>
<path d="M31 46C29.346 46 28 44.654 28 43C28 41.346 29.346 40 31 40C32.654 40 34 41.346 34 43C34 44.654 32.654 46 31 46ZM31 42C30.45 42 30 42.45 30 43C30 43.55 30.45 44 31 44C31.55 44 32 43.55 32 43C32 42.45 31.55 42 31 42Z" fill="white"/>
<path d="M41 46C39.346 46 38 44.654 38 43C38 41.346 39.346 40 41 40C42.654 40 44 41.346 44 43C44 44.654 42.654 46 41 46ZM41 42C40.45 42 40 42.45 40 43C40 43.55 40.45 44 41 44C41.55 44 42 43.55 42 43C42 42.45 41.55 42 41 42Z" fill="white"/>
<path d="M41 62H29C25.14 62 22 58.86 22 55C22 53.132 22.728 51.376 24.052 50.052C25.376 48.728 27.132 48 29 48H41C41.552 48 42 48.448 42 49C42 49.552 41.552 50 41 50H29C27.668 50 26.412 50.522 25.466 51.466C24.52 52.41 24 53.668 24 55C24 57.758 26.242 60 29 60H41C41.552 60 42 60.448 42 61C42 61.552 41.552 62 41 62Z" fill="white"/>
<path d="M31 58C29.346 58 28 56.654 28 55C28 53.346 29.346 52 31 52C32.654 52 34 53.346 34 55C34 56.654 32.654 58 31 58ZM31 54C30.45 54 30 54.45 30 55C30 55.55 30.45 56 31 56C31.55 56 32 55.55 32 55C32 54.45 31.55 54 31 54Z" fill="white"/>
<path d="M41 58C39.346 58 38 56.654 38 55C38 53.346 39.346 52 41 52C42.654 52 44 53.346 44 55C44 56.654 42.654 58 41 58ZM41 54C40.45 54 40 54.45 40 55C40 55.55 40.45 56 41 56C41.55 56 42 55.55 42 55C42 54.45 41.55 54 41 54Z" fill="white"/>
</g>
<defs>
<clipPath id="clip0">
<rect width="48" height="48" fill="white" transform="translate(22 22)"/>
</clipPath>
</defs>
</svg>
