<svg width="92" height="92" viewBox="0 0 92 92" fill="none" xmlns="http://www.w3.org/2000/svg">
<circle cx="46" cy="46" r="46" fill="#BCCEFF"/>
<circle cx="46" cy="46" r="37" fill="#3661D6" stroke="white" stroke-width="2"/>
<g clip-path="url(#clip0)">
<path d="M71.795 39.9727C71.6175 39.5491 71.2855 39.2198 70.8605 39.0461L67.8585 37.8177C67.4338 37.644 66.9662 37.6457 66.5425 37.8235C66.1185 38.0014 65.7896 38.3334 65.6156 38.7581L62.1981 47.1108V33.4616C62.1981 33.2845 62.1278 33.1142 62.0024 32.9889L53.2089 24.1957C53.0836 24.0704 52.9137 24 52.7365 24H27.6684C27.2994 24 27 24.2994 27 24.6684V29.8262C27 30.1953 27.2994 30.4946 27.6684 30.4946C28.0375 30.4946 28.3366 30.1953 28.3366 29.8262V25.3366H52.0677V33.4616C52.0677 33.8307 52.3671 34.1297 52.7362 34.1297H60.8616V50.3778L57.9152 57.5783C57.8781 57.669 57.8613 57.7668 57.8664 57.8647L58.1809 64.1554C58.194 64.4142 58.3553 64.6422 58.5953 64.7404C58.677 64.774 58.7628 64.7902 58.8483 64.7902C59.0131 64.7902 59.1752 64.7294 59.3008 64.6137L60.8612 63.1772V67.6634H28.3366V32.4996C28.3366 32.1306 28.0375 31.8312 27.6684 31.8312C27.2994 31.8312 27 32.1306 27 32.4996V68.3316C27 68.7006 27.2994 69 27.6684 69H61.5297C61.8988 69 62.1981 68.7006 62.1981 68.3316V61.9468L63.935 60.3479C64.0071 60.2813 64.0634 60.2 64.1008 60.1093L67.1307 52.7038C67.2704 52.3622 67.1066 51.9719 66.765 51.8321C66.4238 51.6924 66.0334 51.8558 65.8937 52.1974L63.1165 58.9846L59.4052 57.4661L65.1081 43.5282L68.8195 45.0467L66.8519 49.8556C66.7121 50.1972 66.8756 50.5876 67.2175 50.7273C67.5591 50.8671 67.9491 50.7036 68.0889 50.362L71.8012 41.289C71.9749 40.864 71.9729 40.3964 71.795 39.9727ZM53.4046 26.2814L59.9164 32.7935H53.4046V26.2814ZM59.2538 58.8479L62.2562 60.0764L59.4447 62.6647L59.2538 58.8479ZM70.5639 40.7826L69.3255 43.8094L65.6142 42.2909L66.8526 39.2641C66.8914 39.1697 66.9648 39.0959 67.0592 39.0564C67.154 39.0166 67.258 39.0159 67.3524 39.0547L70.3545 40.2831C70.4489 40.3216 70.5227 40.395 70.5622 40.4894C70.602 40.5842 70.6027 40.6882 70.5639 40.7826Z" fill="white"/>
<path d="M49.2408 31.2963H40.954C40.585 31.2963 40.2856 31.5953 40.2856 31.9644C40.2856 32.3335 40.585 32.6329 40.954 32.6329H49.2408C49.6099 32.6329 49.9093 32.3335 49.9093 31.9644C49.9093 31.5953 49.6099 31.2963 49.2408 31.2963Z" fill="white"/>
<path d="M32.1687 45.954H37.4524C37.8215 45.954 38.1205 45.6546 38.1205 45.2856V40.5525L39.1179 39.2829C39.3459 38.9928 39.2954 38.5726 39.0053 38.3446C38.7152 38.1166 38.295 38.1671 38.067 38.4572L37.3783 39.3337H32.1687C31.7996 39.3337 31.5002 39.6328 31.5002 40.0018V45.2856C31.5002 45.6546 31.7996 45.954 32.1687 45.954ZM32.8368 40.6703H36.3281L35.2644 42.024L34.5208 41.28C34.2599 41.0191 33.8366 41.0191 33.5756 41.28C33.3147 41.5413 33.3147 41.9643 33.5756 42.2252L34.8521 43.5017C34.9778 43.6273 35.1481 43.6974 35.3245 43.6974C35.3379 43.6974 35.3513 43.697 35.3647 43.6963C35.5552 43.685 35.732 43.5923 35.8501 43.4419L36.784 42.2537V44.6175H32.8368V40.6703Z" fill="white"/>
<path d="M56.3689 40.3717H42.0677C41.6987 40.3717 41.3993 40.6711 41.3993 41.0401C41.3993 41.4092 41.6987 41.7086 42.0677 41.7086H56.3689C56.7383 41.7086 57.0373 41.4092 57.0373 41.0401C57.0373 40.6711 56.7383 40.3717 56.3689 40.3717Z" fill="white"/>
<path d="M42.0677 44.9163H53.5622C53.9313 44.9163 54.2303 44.6169 54.2303 44.2478C54.2303 43.8787 53.9313 43.5797 53.5622 43.5797H42.0677C41.6987 43.5797 41.3993 43.8787 41.3993 44.2478C41.3993 44.6169 41.6987 44.9163 42.0677 44.9163Z" fill="white"/>
<path d="M31.5002 54.0623C31.5002 54.4314 31.7996 54.7307 32.1687 54.7307H37.4524C37.8215 54.7307 38.1205 54.4314 38.1205 54.0623V49.3292L39.1179 48.0596C39.3459 47.7695 39.2954 47.3493 39.0053 47.1213C38.7152 46.8934 38.295 46.9438 38.067 47.2339L37.3783 48.1104H32.1687C31.7996 48.1104 31.5002 48.4095 31.5002 48.7785V54.0623ZM32.8368 49.447H36.3281L35.2644 50.8007L34.5208 50.0567C34.2599 49.7958 33.8366 49.7958 33.5756 50.0567C33.3147 50.318 33.3147 50.741 33.5756 51.0019L34.8521 52.2784C34.9778 52.404 35.1481 52.4741 35.3245 52.4741C35.3379 52.4741 35.3513 52.4737 35.3647 52.473C35.5552 52.4617 35.732 52.369 35.8501 52.2186L36.784 51.0304V53.3942H32.8368V49.447Z" fill="white"/>
<path d="M56.3689 49.1484H42.0677C41.6987 49.1484 41.3993 49.4478 41.3993 49.8168C41.3993 50.1859 41.6987 50.4849 42.0677 50.4849H56.3689C56.7383 50.4849 57.0373 50.1859 57.0373 49.8168C57.0373 49.4478 56.7383 49.1484 56.3689 49.1484Z" fill="white"/>
<path d="M42.0677 53.693H46.3449C46.7139 53.693 47.013 53.3936 47.013 53.0245C47.013 52.6554 46.7139 52.3564 46.3449 52.3564H42.0677C41.6987 52.3564 41.3993 52.6554 41.3993 53.0245C41.3993 53.3936 41.6987 53.693 42.0677 53.693Z" fill="white"/>
<path d="M31.5002 62.8391C31.5002 63.2082 31.7996 63.5075 32.1687 63.5075H37.4524C37.8215 63.5075 38.1205 63.2082 38.1205 62.8391V57.5557C38.1205 57.1866 37.8215 56.8872 37.4524 56.8872H32.1687C31.7996 56.8872 31.5002 57.1866 31.5002 57.5557V62.8391ZM32.8368 58.2238H36.784V62.1706H32.8368V58.2238Z" fill="white"/>
<path d="M57.0373 58.5935C57.0373 58.2245 56.7383 57.9251 56.3689 57.9251H42.0677C41.6987 57.9251 41.3993 58.2245 41.3993 58.5935C41.3993 58.9626 41.6987 59.2617 42.0677 59.2617H56.3689C56.7383 59.2617 57.0373 58.9626 57.0373 58.5935Z" fill="white"/>
<path d="M42.0677 61.1328C41.6987 61.1328 41.3993 61.4321 41.3993 61.8012C41.3993 62.1703 41.6987 62.4697 42.0677 62.4697H54.2303C54.5997 62.4697 54.8987 62.1703 54.8987 61.8012C54.8987 61.4321 54.5997 61.1328 54.2303 61.1328H42.0677Z" fill="white"/>
</g>
<defs>
<clipPath id="clip0">
<rect width="45" height="45" fill="white" transform="translate(27 24)"/>
</clipPath>
</defs>
</svg>
