<svg width="92" height="92" viewBox="0 0 92 92" fill="none" xmlns="http://www.w3.org/2000/svg">
<circle cx="46" cy="46" r="46" fill="#BCCEFF"/>
<circle cx="46" cy="46" r="37" fill="#3661D6" stroke="white" stroke-width="2"/>
<path d="M61.322 28.4533C61.3421 28.4547 61.3623 28.4562 61.3829 28.4562C61.4177 28.4562 61.4525 28.4533 61.4867 28.4485C62.3996 28.4672 63.1302 29.2118 63.1313 30.1247C63.1313 30.5395 63.4676 30.8758 63.8825 30.8758C64.2973 30.8758 64.6336 30.5395 64.6336 30.1247C64.6318 28.6315 63.5923 27.3397 62.134 27.0184V26.2966C62.134 25.8818 61.7977 25.5455 61.3829 25.5455C60.968 25.5455 60.6317 25.8818 60.6317 26.2966V27.0525C59.0898 27.4648 58.0921 28.9565 58.3001 30.5391C58.508 32.1218 59.8571 33.305 61.4533 33.305C62.3801 33.305 63.1313 34.0566 63.1313 34.9834C63.1313 35.9099 62.3801 36.6614 61.4533 36.6614C60.5264 36.6614 59.7753 35.9099 59.7753 34.9834C59.7753 34.5686 59.4389 34.2322 59.0241 34.2322C58.6093 34.2322 58.2729 34.5686 58.2729 34.9834C58.2748 36.4226 59.2416 37.6818 60.6317 38.0555V38.8786C60.6317 39.2934 60.968 39.6298 61.3829 39.6298C61.7977 39.6298 62.134 39.2934 62.134 38.8786V38.09C63.7203 37.7427 64.7902 36.2558 64.6153 34.6412C64.4407 33.0266 63.0774 31.8031 61.4533 31.8034C60.5521 31.8038 59.8116 31.0922 59.776 30.1918C59.7408 29.2914 60.4234 28.5237 61.322 28.4536V28.4533Z" fill="white"/>
<path d="M61.5995 21C56.3442 21 51.8594 24.4155 50.1792 28.9888H28.9766C28.5069 28.9888 28.1257 29.4105 28.1223 29.8779L27.9204 59.7261H21.8768C21.405 59.7261 21 60.0664 21 60.5371V64.3248C21.0108 67.8907 23.8306 70.8201 27.407 70.9813V71H53.7823V70.9751C53.9958 70.983 54.0839 71 54.219 71H54.2374C57.9389 70.9942 60.9367 68.0037 60.9367 64.3169V45.166C61.1503 45.1776 61.3764 45.1838 61.5974 45.1838C68.2851 45.1838 73.7273 39.753 73.7273 33.0915C73.7273 26.4305 68.2876 21 61.5995 21ZM27.7319 69.2983H27.7265C24.9631 69.2945 22.721 67.0689 22.7085 64.3161V61.4278H47.4821V64.3041C47.4833 66.0797 48.1954 67.7819 49.4601 69.0336C49.5498 69.123 49.6611 69.1919 49.755 69.2983H27.7319ZM59.2282 64.3161C59.2286 67.0639 56.9949 69.2929 54.2365 69.2983H54.2202C51.4506 69.2933 49.2044 67.0631 49.1906 64.3049V60.5371C49.1977 60.3194 49.1143 60.1088 48.9595 59.955C48.8048 59.8013 48.5933 59.7186 48.3752 59.7261H29.629L29.825 30.6906H49.7049C49.5535 31.4696 49.4751 32.2606 49.4709 33.0537C49.4693 34.7309 49.8205 36.3894 50.502 37.9229H42.4333C41.9611 37.9229 41.579 38.3038 41.579 38.7737C41.579 39.2436 41.9611 39.6246 42.4333 39.6246H51.4289C53.1912 42.3849 56.0084 44.3093 59.2282 44.9533V64.3161ZM61.5995 43.4825C55.8449 43.4825 51.1794 38.836 51.1799 33.104C51.1799 27.3719 55.8449 22.7254 61.5999 22.7254C67.3545 22.7254 72.0196 27.3723 72.0196 33.104C72.0133 38.8331 67.352 43.4763 61.5995 43.4825Z" fill="white"/>
<path d="M37.0406 42.0753C35.7147 42.0753 34.6364 43.1196 34.6364 44.4033C34.6364 45.687 35.7147 46.7312 37.0406 46.7312C38.3665 46.7312 39.4452 45.687 39.4452 44.4033C39.4452 43.1196 38.3665 42.0753 37.0406 42.0753ZM37.0406 45.2289C36.5429 45.2289 36.1387 44.8585 36.1387 44.4033C36.1387 43.9477 36.5432 43.5777 37.0406 43.5777C37.5379 43.5777 37.9429 43.9481 37.9429 44.4033C37.9429 44.8585 37.5379 45.2289 37.0406 45.2289Z" fill="white"/>
<path d="M41.9091 44.4784C41.9091 44.8933 42.2451 45.2296 42.6603 45.2296H52.6748C53.0896 45.2296 53.4259 44.8933 53.4259 44.4784C53.4259 44.0636 53.0896 43.7273 52.6748 43.7273H42.6603C42.2451 43.7273 41.9091 44.0636 41.9091 44.4784Z" fill="white"/>
<path d="M37.0406 35.5455C35.7147 35.5455 34.6364 36.59 34.6364 37.8738C34.6364 39.1575 35.7147 40.2017 37.0406 40.2017C38.3665 40.2017 39.4452 39.1575 39.4452 37.8738C39.4452 36.59 38.3665 35.5455 37.0406 35.5455ZM37.0406 38.6994C36.5429 38.6994 36.1387 38.3289 36.1387 37.8738C36.1387 37.4186 36.5432 37.0478 37.0406 37.0478C37.5379 37.0478 37.9429 37.4182 37.9429 37.8738C37.9429 38.3289 37.5379 38.6997 37.0406 38.6997V38.6994Z" fill="white"/>
<path d="M37.0406 48.6043C35.7147 48.6043 34.6364 49.6485 34.6364 50.9323C34.6364 52.216 35.7147 53.2602 37.0406 53.2602C38.3665 53.2602 39.4452 52.216 39.4452 50.9323C39.4452 49.6485 38.3665 48.6043 37.0406 48.6043ZM37.0406 51.7579C36.5429 51.7579 36.1387 51.3878 36.1387 50.9323C36.1387 50.4771 36.5432 50.1066 37.0406 50.1066C37.5379 50.1066 37.9429 50.4771 37.9429 50.9323C37.9429 51.3874 37.5379 51.7579 37.0406 51.7579Z" fill="white"/>
<path d="M52.6748 50.0909H42.6603C42.2451 50.0909 41.9091 50.4272 41.9091 50.8421C41.9091 51.2569 42.2451 51.5932 42.6603 51.5932H52.6748C53.0896 51.5932 53.4259 51.2569 53.4259 50.8421C53.4259 50.4272 53.0896 50.0909 52.6748 50.0909Z" fill="white"/>
</svg>
