<svg width="92" height="92" viewBox="0 0 92 92" fill="none" xmlns="http://www.w3.org/2000/svg">
<circle cx="46" cy="46" r="46" fill="#BCCEFF"/>
<circle cx="46" cy="46" r="37" fill="#3661D6" stroke="white" stroke-width="2"/>
<g clip-path="url(#clip0)">
<path d="M69.953 47.2312C69.9504 47.1488 69.9473 47.0502 69.9473 46.9303V28.8318C69.9473 28.7986 69.9478 28.7671 69.9482 28.7374C69.9516 28.4959 69.9579 28.0463 69.5392 27.7921C69.0981 27.5244 68.6385 27.7716 68.416 27.8914C67.4015 28.4409 66.3153 28.7195 65.1841 28.7195C65.1743 28.7195 65.1647 28.7195 65.1553 28.7195C63.8868 28.7195 62.6278 28.3512 61.5144 27.6544C60.1683 26.8091 58.6349 26.3622 57.08 26.3622C55.5262 26.3622 53.9921 26.8089 52.6438 27.6538C51.5294 28.3512 50.2704 28.7195 48.9992 28.7195C48.9902 28.7195 48.9814 28.7195 48.9728 28.7195C47.7043 28.7195 46.4452 28.3512 45.3319 27.6544C43.9858 26.8091 42.4524 26.3622 40.8975 26.3622C40.5931 26.3622 40.0745 26.3797 39.5057 26.4127C39.5158 26.2835 39.5224 26.1533 39.5224 26.0216C39.5224 23.2527 37.2685 21 34.4981 21C31.7291 21 29.4764 23.2527 29.4764 26.0217C29.4764 27.6309 30.2372 29.0647 31.4169 29.985L31.4248 37.746C31.4252 38.1503 31.7531 38.4776 32.1573 38.4776H32.158C32.5625 38.4772 32.8901 38.1489 32.8897 37.7444L32.8825 30.7779C33.3899 30.951 33.9329 31.0462 34.498 31.0462C35.0658 31.0462 35.6113 30.95 36.1207 30.7756L36.1228 34.673C36.1182 34.72 36.1182 34.7673 36.1229 34.8146L36.124 36.8658L36.1213 41.1429C36.117 41.1884 36.1169 41.2343 36.1212 41.2801L36.1173 47.6816C36.1173 47.7246 36.1223 47.7667 36.1296 47.8082L36.1307 49.854C35.11 49.8527 33.7188 49.8769 32.8947 49.9036L32.8897 41.0954C32.8895 40.691 32.5617 40.3634 32.1573 40.3634C32.1572 40.3634 32.157 40.3634 32.1569 40.3634C31.7523 40.3636 31.4246 40.6917 31.4248 41.0962L31.4299 50.0527C29.8269 50.3763 28.8318 51.2001 28.0288 52.8133C27.9997 52.905 27.9753 53.0271 27.82 53.0185C27.7596 53.0151 27.6909 53.0172 27.6128 53.0172H23.5295C22.7356 53.0172 22.0808 53.6676 22.07 54.4688L22.0452 56.6998C22.0408 57.1043 22.3651 57.4358 22.7696 57.4403H22.7779C23.1786 57.4403 23.5056 57.1178 23.5101 56.716L23.5295 54.482H27.6128C27.6857 54.482 27.7494 54.4826 27.806 54.4832C28.4449 54.4905 28.6887 54.4094 29.0735 53.8682C29.1176 53.8062 29.2931 53.5618 29.3138 53.5195C30.1103 51.889 30.9764 51.5236 32.3951 51.3916C32.7255 51.3609 35.5568 51.2954 36.8454 51.3259C37.373 51.339 37.8175 51.6552 38.0144 52.1039C38.0213 52.1236 38.0288 52.1431 38.0374 52.1619C38.0911 52.3025 38.1222 52.4542 38.1234 52.6135V57.7578C38.1234 58.1728 38.1235 58.8592 38.0096 59.0372C37.9983 59.0392 37.9799 59.0411 37.953 59.0411C37.5881 59.0411 36.2075 58.3113 36.2075 57.3257V55.5062C36.2075 54.4585 35.406 53.6377 34.3827 53.6377H32.149C31.7646 53.6377 31.45 53.9339 31.4196 54.3104C31.4176 54.3254 31.4165 54.3451 31.4165 54.3701C31.4165 55.8154 30.4365 57.0607 29.0331 57.3984C28.6399 57.4931 28.3978 57.8887 28.4924 58.2819C28.587 58.6752 28.9825 58.9168 29.3759 58.8227C30.1615 58.6336 30.8565 58.2509 31.4165 57.7326V65.5839C31.3702 65.5521 31.3231 65.5192 31.2742 65.4841C30.6083 65.0081 29.9422 64.328 29.2391 63.4061C29.1695 63.3144 29.1157 63.2389 29.0714 63.1768C28.687 62.6379 28.4416 62.5576 27.8003 62.5638C27.7452 62.5643 27.6832 62.5648 27.6127 62.5648L23.5346 62.5628L23.5099 60.0545C23.5059 59.6524 23.1787 59.3293 22.7777 59.3293C22.7752 59.3293 22.7727 59.3293 22.7702 59.3293C22.3658 59.3333 22.0411 59.6645 22.045 60.0688L22.0699 62.5798C22.0806 63.3792 22.7354 64.0295 23.5293 64.0295H27.6126C27.6879 64.0295 27.7542 64.0289 27.8132 64.0284C27.8349 64.0282 27.8573 64.028 27.8792 64.0279C27.9301 64.0993 27.9921 64.1861 28.0732 64.2929C28.8673 65.3341 29.6357 66.1135 30.4207 66.6746C30.788 66.9384 31.1061 67.1308 31.4163 67.2749V67.9185C31.4163 69.6176 32.7987 71 34.4979 71C36.1985 71 37.5821 69.6177 37.5821 67.9185V67.6739H40.3539C41.643 67.6739 42.6917 66.6252 42.6917 65.3361C42.6917 64.9644 42.6043 64.6128 42.4495 64.3003C43.4265 63.9234 44.1269 62.9224 44.1269 61.7493C44.1269 60.9561 43.806 60.2414 43.2955 59.7456C43.8075 59.2521 44.1269 58.5603 44.1269 57.7948C44.1269 57.0151 43.7955 56.3116 43.2668 55.8166C43.7955 55.3221 44.1269 54.6193 44.1269 53.8403C44.1269 52.3454 42.9108 51.1293 41.4159 51.1293H39.1496C38.794 50.5764 38.2458 50.1603 37.5954 49.972L37.5945 48.0943C38.6175 47.5313 39.7509 47.2346 40.8973 47.2346C42.1763 47.2346 43.4403 47.6038 44.5536 48.303C45.9013 49.1464 47.4288 49.5919 48.97 49.5919H48.9858C50.5325 49.5964 52.0683 49.1492 53.421 48.3028C54.5363 47.604 55.8015 47.2346 57.0798 47.2346C58.3588 47.2346 59.6228 47.6038 60.7362 48.303C62.0838 49.1464 63.6114 49.5919 65.1522 49.5919H65.1871C66.5077 49.5919 67.7876 49.2764 68.9937 48.6525L69.067 48.6144C69.7639 48.2521 69.9769 48.0141 69.953 47.2312ZM36.1174 67.9185C36.1174 68.8099 35.391 69.5352 34.4981 69.5352C33.6067 69.5352 32.8814 68.81 32.8814 67.9185V55.1024H34.3827C34.5163 55.1024 34.7426 55.1875 34.7426 55.5061V57.3256C34.7426 58.2239 35.2243 58.9929 35.8494 59.5499C35.2097 60.042 34.7919 60.8442 34.7919 61.7493C34.7919 62.5381 35.1084 63.2489 35.6123 63.7448C35.2245 64.1628 34.9868 64.7221 34.9868 65.3361C34.9868 66.1838 35.4404 66.9274 36.1174 67.3374V67.9185ZM40.3541 66.2091H37.3246C36.8515 66.2091 36.4518 65.8093 36.4518 65.3361C36.4518 64.8614 36.8516 64.4604 37.3246 64.4604H40.3541C40.8356 64.4604 41.2271 64.8533 41.2271 65.3361C41.2271 65.8175 40.8356 66.2091 40.3541 66.2091ZM41.4161 52.5941C42.1033 52.5941 42.6623 53.1532 42.6623 53.8403C42.6623 54.526 42.1033 55.0838 41.4161 55.0838H39.5882V52.6081C39.5882 52.6034 39.5878 52.5988 39.5877 52.594H41.4161V52.5941ZM39.5882 57.7577V56.5486H41.4161C42.1033 56.5486 42.6623 57.1077 42.6623 57.7948C42.6623 58.482 42.1033 59.041 41.4161 59.041H39.5206C39.5874 58.6473 39.5882 58.2125 39.5882 57.7577ZM41.5918 60.506C42.1721 60.506 42.6623 61.0754 42.6623 61.7494C42.6623 62.4249 42.1721 62.9956 41.5918 62.9956H37.3246C36.7359 62.9956 36.2568 62.4365 36.2568 61.7494C36.2568 61.0754 36.7458 60.506 37.3246 60.506H41.5918ZM34.4981 29.5813C32.5368 29.5813 30.9412 27.9845 30.9412 26.0217C30.9412 24.0604 32.5368 22.4648 34.4981 22.4648C36.4609 22.4648 38.0575 24.0604 38.0575 26.0217C38.0575 27.9845 36.4609 29.5813 34.4981 29.5813ZM44.21 46.4691C43.1605 46.0099 42.0349 45.7697 40.8975 45.7697C39.7629 45.7697 38.6404 46.0071 37.5938 46.4632L37.5912 41.626C38.6154 41.063 39.7451 40.7663 40.8857 40.7663H40.9121C42.0521 40.7663 43.1841 41.0647 44.21 41.6309V46.4691ZM44.21 39.9992C43.1622 39.5409 42.0423 39.3015 40.9151 39.3015C40.9046 39.3015 40.8937 39.3015 40.8828 39.3015C39.755 39.3015 38.6365 39.5398 37.5905 39.9958L37.5888 36.8982L37.5899 35.1577C38.6142 34.5929 39.7493 34.2953 40.8975 34.2953C42.0469 34.2953 43.1838 34.5944 44.21 35.162V39.9992ZM44.21 33.53C43.1605 33.0707 42.0349 32.8306 40.8975 32.8306C39.7618 32.8306 38.6383 33.0694 37.5909 33.5264L37.593 29.9791C37.6039 29.9706 37.6134 29.9613 37.6228 29.952C38.2956 29.4158 38.8281 28.7114 39.1559 27.9023L39.1582 27.9027C39.8576 27.8534 40.5392 27.8271 40.8976 27.8271C42.0468 27.8271 43.1834 28.1262 44.2101 28.6939V33.53H44.21ZM52.2999 47.2625C51.2735 47.8288 50.1414 48.1271 48.999 48.1271C48.9903 48.1271 48.9817 48.1271 48.973 48.1271C47.8328 48.1271 46.7007 47.8287 45.6748 47.2626V42.4243C46.7244 42.8836 47.85 43.1237 48.9874 43.1237C50.125 43.1237 51.2508 42.8835 52.2999 42.4244V47.2625ZM52.2999 40.7922C51.2738 41.3598 50.1368 41.6589 48.9874 41.6589C47.8383 41.6589 46.7016 41.3599 45.6748 40.7922V35.9561C46.7205 36.4136 47.8404 36.6527 48.9698 36.6527H49.0022C50.1337 36.6527 51.2542 36.4136 52.2999 35.9561V40.7922ZM52.2999 34.3239C51.2768 34.8897 50.145 35.1879 48.9993 35.1879C48.9903 35.1879 48.9813 35.1879 48.9728 35.1879C47.8297 35.1879 46.698 34.8897 45.6748 34.3239V29.4867C46.7227 29.945 47.8426 30.1845 48.9698 30.1845H49.0021C50.1314 30.1845 51.2518 29.945 52.2999 29.4867V34.3239ZM60.3925 46.4691C59.343 46.0099 58.2174 45.7697 57.08 45.7697C55.9425 45.7697 54.8159 46.0101 53.7648 46.4698V41.6313C54.7935 41.0647 55.9263 40.7662 57.0683 40.7662H57.0815C58.2257 40.7657 59.3626 41.0628 60.3925 41.6309V46.4691ZM60.3925 39.9992C59.3448 39.5409 58.2248 39.3015 57.0976 39.3015C57.0871 39.3015 57.0761 39.3015 57.0655 39.3015C55.9363 39.3015 54.815 39.5411 53.7648 40.0001V35.1624C54.7932 34.5946 55.9311 34.2953 57.08 34.2953C58.2294 34.2953 59.3664 34.5944 60.3925 35.162V39.9992ZM60.3925 33.53C59.343 33.0707 58.2174 32.8306 57.08 32.8306C55.9427 32.8306 54.8162 33.0709 53.7648 33.5308V28.6942C54.7932 28.1265 55.9311 27.8271 57.08 27.8271C58.2292 27.8271 59.3659 28.1262 60.3925 28.6939V33.53ZM61.8574 29.4867C62.9052 29.945 64.025 30.1845 65.1521 30.1845H65.1864C66.3118 30.1845 67.4387 29.9451 68.4825 29.4881V34.324C67.4594 34.8898 66.3276 35.1879 65.1818 35.1879C65.1728 35.1879 65.1638 35.1879 65.1553 35.1879C64.0122 35.1879 62.8805 34.8897 61.8574 34.3239V29.4867ZM61.8574 35.9561C62.9031 36.4136 64.0229 36.6527 65.1523 36.6527H65.1847C66.3161 36.6527 67.4367 36.4136 68.4825 35.9561V40.7922C67.4564 41.3597 66.3194 41.6589 65.17 41.6589C64.0208 41.6589 62.8841 41.3599 61.8574 40.7922V35.9561ZM68.3912 47.3149L68.3186 47.3528C67.3249 47.8667 66.2715 48.1271 65.1841 48.1271C65.1789 48.1271 65.1737 48.1271 65.1685 48.1271C64.0247 48.1293 62.8873 47.8308 61.8574 47.2626V42.4243C62.907 42.8836 64.0326 43.1237 65.17 43.1237C66.3074 43.1237 67.4329 42.8836 68.4825 42.4243V46.9303C68.4825 47.0624 68.4856 47.172 68.4884 47.2642C68.4566 47.281 68.4234 47.2982 68.3912 47.3149Z" fill="white"/>
</g>
<defs>
<clipPath id="clip0">
<rect width="50" height="50" fill="white" transform="translate(21 21)"/>
</clipPath>
</defs>
</svg>
