<svg width="92" height="92" viewBox="0 0 92 92" fill="none" xmlns="http://www.w3.org/2000/svg">
<circle cx="46" cy="46" r="46" fill="#BCCEFF"/>
<circle cx="46" cy="46" r="37" fill="#3661D6" stroke="white" stroke-width="2"/>
<g clip-path="url(#clip0)">
<path d="M70.7963 42.3241L62.4276 31.453C62.1179 31.0509 61.5529 30.9518 61.1245 31.2241L55.7214 34.6604H48.6745C48.5833 34.6604 48.4925 34.6799 48.4048 34.7054L42.941 36.2782L37.2716 34.7276L31.7628 31.2241C31.3417 30.9563 30.787 31.0471 30.4738 31.4355L21.2174 42.9009C20.8848 43.3129 20.9397 43.9145 21.341 44.2597L26.1926 48.4349L30.5451 54.3004C29.2722 55.6565 29.297 57.7954 30.6214 59.1203C31.2085 59.707 31.9551 60.0385 32.723 60.1155C32.6963 60.2895 32.6825 60.4661 32.6825 60.6454C32.6825 61.5708 33.043 62.441 33.6972 63.0952C34.3518 63.7498 35.222 64.1103 36.1474 64.1103C36.16 64.1103 36.1722 64.1095 36.1844 64.1091C36.184 64.1328 36.1829 64.156 36.1829 64.1797C36.1829 65.1051 36.5434 65.9753 37.1976 66.6299C37.8522 67.2841 38.7223 67.6446 39.6478 67.6446C39.8305 67.6446 40.0113 67.6297 40.1887 67.6022C40.2638 68.3728 40.5961 69.1228 41.1851 69.7118C41.8603 70.3874 42.7476 70.725 43.6349 70.725C44.5222 70.725 45.4095 70.3874 46.0851 69.7118L46.6149 69.1819L46.8373 69.3612C47.5072 70.0101 48.3769 70.3343 49.2467 70.3343C50.134 70.3343 51.0213 69.9967 51.6965 69.3211C52.3858 68.6318 52.7234 67.722 52.7093 66.8168C53.6141 66.8305 54.5243 66.4933 55.2136 65.8044C55.9022 65.1154 56.2398 64.2064 56.2265 63.3015C57.1691 63.3164 58.0632 62.9544 58.7304 62.2872C59.4197 61.5979 59.7573 60.6881 59.7432 59.7829C60.6488 59.7966 61.5583 59.4594 62.2476 58.7701C63.424 57.5936 63.5755 55.7751 62.703 54.4328L65.8811 47.7769L70.659 43.6654C71.0538 43.3255 71.1141 42.7365 70.7963 42.3241ZM31.4492 33.3485L35.4104 35.8674L26.7934 46.3654L23.3403 43.3934L31.4492 33.3485ZM32.0081 55.6065L33.2036 54.411C33.2398 54.3748 33.278 54.3404 33.3169 54.3084C33.5507 54.1177 33.8338 54.004 34.1336 53.9769C34.142 53.9761 34.1508 53.9761 34.1592 53.9758C34.2019 53.9723 34.2446 53.97 34.2877 53.9704C34.6974 53.9761 35.0781 54.1436 35.3604 54.4415C35.9143 55.0271 35.8846 55.9838 35.2941 56.5743L34.1348 57.7336C33.5485 58.3199 32.5944 58.3199 32.0081 57.7336C31.4218 57.1469 31.4218 56.1929 32.0081 55.6065ZM35.0839 61.7085C34.7997 61.4247 34.6433 61.0471 34.6433 60.6454C34.6433 60.2437 34.7997 59.866 35.0839 59.5818L37.4021 57.2636C37.8461 56.8196 38.5442 56.6979 39.1118 56.9684C39.697 57.2472 40.0262 57.8824 39.9404 58.5214C39.8946 58.8624 39.7359 59.1836 39.4925 59.4273L37.2109 61.7085C36.9268 61.9927 36.5491 62.1491 36.1474 62.1491C35.7457 62.1491 35.3681 61.9927 35.0839 61.7085ZM38.5842 65.2428C38.3 64.959 38.1436 64.5814 38.1436 64.1797C38.1436 63.778 38.3 63.4003 38.5842 63.1162L40.902 60.798C41.377 60.3234 42.1388 60.2212 42.7201 60.5595C43.2511 60.8685 43.5292 61.4751 43.4381 62.0793C43.3881 62.4116 43.2302 62.724 42.9925 62.9617L40.7113 65.2428C40.4271 65.527 40.0495 65.6834 39.6478 65.6834C39.2461 65.6834 38.8684 65.527 38.5842 65.2428ZM42.5714 68.3251C41.985 67.7388 41.985 66.7847 42.5714 66.1984L43.7669 65.0029C43.8031 64.9667 43.8409 64.9327 43.8798 64.9007C43.8809 64.8999 43.8817 64.8991 43.8825 64.8984C44.077 64.7405 44.3055 64.6348 44.5493 64.5886C44.555 64.5879 44.5607 64.5871 44.5664 64.5863C44.6084 64.5787 44.6511 64.5726 44.6939 64.5688C44.711 64.5673 44.7282 64.5673 44.7457 64.5661C44.7808 64.5642 44.8155 64.5619 44.851 64.5623C45.2603 64.568 45.6414 64.7351 45.9237 65.0334C45.9584 65.07 45.9909 65.1082 46.0206 65.1475C46.4715 65.7369 46.4109 66.6123 45.8512 67.1723L44.6981 68.3255C44.1117 68.9118 43.1577 68.9114 42.5714 68.3251ZM60.8609 57.3834C60.2746 57.9701 59.3206 57.9697 58.7342 57.3834C58.7129 57.3621 58.6904 57.3422 58.6675 57.3235L52.3633 50.953C51.9822 50.5681 51.3616 50.565 50.9767 50.9461C50.5918 51.3268 50.5887 51.9475 50.9694 52.3324L57.3419 58.7712C57.3426 58.772 57.3434 58.7727 57.3442 58.7735C57.9305 59.3598 57.9305 60.3143 57.3442 60.9006C57.06 61.1848 56.6823 61.3412 56.2806 61.3412C55.8786 61.3412 55.5009 61.1848 55.2171 60.9006L50.9542 56.5934C50.5735 56.2085 49.9528 56.2054 49.5679 56.5862C49.183 56.9672 49.1799 57.5879 49.5606 57.9728L53.7583 62.214C53.7797 62.2407 53.8026 62.2662 53.827 62.2907C54.4133 62.877 54.4133 63.8314 53.827 64.4177C53.2403 65.004 52.2859 65.0037 51.6995 64.4173L49.373 62.0663C48.9919 61.6814 48.3712 61.678 47.9863 62.0591C47.6014 62.4398 47.5984 63.0605 47.9791 63.4454L50.2408 65.7304C50.2622 65.7571 50.2851 65.783 50.3099 65.8074C50.8962 66.3937 50.8962 67.3482 50.3099 67.9345C49.7235 68.5212 48.7695 68.5208 48.1832 67.9345C48.1156 67.867 48.0363 67.8151 47.9608 67.7571C47.8967 67.7083 47.8799 67.6743 47.9119 67.5965C47.9444 67.5176 47.9928 67.4462 48.0252 67.3669C48.0611 67.2784 48.0901 67.1872 48.1183 67.0956C48.2686 66.6112 48.3129 66.0901 48.2453 65.5873C48.1156 64.6226 47.585 63.7521 46.7809 63.2012C46.3464 62.9041 45.8436 62.7091 45.3225 62.6359C45.5751 61.522 45.2718 60.3143 44.4829 59.4807C43.8336 58.7949 42.9566 58.41 42.0133 58.397C41.9789 58.3966 41.9446 58.3966 41.9099 58.397C41.9309 57.4967 41.6036 56.6022 40.9829 55.9464C40.3333 55.2605 39.4563 54.8756 38.5133 54.8627C38.2329 54.8589 37.9499 54.8886 37.6767 54.9516C37.56 54.1394 37.1507 53.3879 36.5308 52.8504C35.9147 52.3171 35.1399 52.0211 34.3148 52.0097C33.4462 51.9971 32.5929 52.3175 31.9478 52.9L28.1579 47.7933L37.2247 36.7474L40.1143 37.5378L36.3404 44.1972C35.8842 45.0024 35.769 45.937 36.0158 46.8289C36.2626 47.7212 36.8417 48.4635 37.647 48.9198C37.6973 48.9484 37.7481 48.9754 37.7996 49.0014C37.8034 49.0033 37.8072 49.0052 37.8114 49.0071C37.9468 49.0746 38.086 49.1326 38.2272 49.1814C38.8845 49.4092 39.5944 49.434 40.2791 49.2448C41.171 48.998 41.9133 48.4185 42.3696 47.6136L44.822 43.2858L49.2009 43.5963L60.8613 55.2563C61.4472 55.8431 61.4472 56.7971 60.8609 57.3834ZM61.2672 52.8893L50.3285 41.9511C50.3079 41.9301 50.2862 41.9102 50.2637 41.8916C50.1061 41.7603 49.9108 41.681 49.7048 41.6665L44.3433 41.2862C43.9725 41.2606 43.604 41.4578 43.4209 41.7809L40.6636 46.647C40.4656 46.9964 40.1433 47.2478 39.7561 47.355C39.3693 47.4622 38.9634 47.4118 38.6136 47.2138C38.2642 47.0158 38.0128 46.6935 37.9056 46.3063C37.7984 45.9191 37.8484 45.5132 38.0467 45.1638L41.7275 38.6678L43.2191 38.2386C43.229 38.2355 43.2386 38.2317 43.2485 38.2287L48.8153 36.6212H55.5413L63.9382 47.2955L61.2672 52.8893ZM65.2227 45.7566L57.4575 35.88L61.4205 33.3596L68.6765 42.7846L65.2227 45.7566Z" fill="white"/>
<path d="M51.2913 32.8194C51.5423 32.8194 51.7933 32.7237 51.9848 32.5322L58.6819 25.8351C59.0649 25.4521 59.0649 24.8314 58.6819 24.4484C58.2989 24.0654 57.6783 24.0654 57.2953 24.4484L50.5982 31.1455C50.2152 31.5285 50.2152 32.1492 50.5982 32.5322C50.7897 32.7237 51.0407 32.8194 51.2913 32.8194Z" fill="white"/>
<path d="M40.0151 32.5322C40.2066 32.7237 40.4576 32.8194 40.7087 32.8194C40.9593 32.8194 41.2103 32.7237 41.4018 32.5322C41.7848 32.1492 41.7848 31.5285 41.4018 31.1455L34.7047 24.4484C34.3217 24.0654 33.701 24.0654 33.3181 24.4484C32.9351 24.8314 32.9351 25.4521 33.3181 25.8351L40.0151 32.5322Z" fill="white"/>
<path d="M46 32.8194C46.5413 32.8194 46.9804 32.3804 46.9804 31.8391V26.2967C46.9804 25.7554 46.5413 25.3163 46 25.3163C45.4587 25.3163 45.0196 25.7554 45.0196 26.2967V31.8391C45.0196 32.3804 45.4587 32.8194 46 32.8194Z" fill="white"/>
<path d="M45.0951 22.7433C45.2507 23.1206 45.6387 23.3682 46.048 23.3468C46.4524 23.3258 46.8075 23.0527 46.9326 22.6678C47.0581 22.2799 46.9216 21.8377 46.5966 21.5905C46.2651 21.338 45.8027 21.3239 45.456 21.5532C45.0692 21.8087 44.9192 22.3176 45.0951 22.7433Z" fill="white"/>
</g>
<defs>
<clipPath id="clip0">
<rect width="50" height="50" fill="white" transform="translate(21 21)"/>
</clipPath>
</defs>
</svg>
