<svg width="92" height="92" viewBox="0 0 92 92" fill="none" xmlns="http://www.w3.org/2000/svg">
<circle cx="46" cy="46" r="46" fill="#BCCEFF"/>
<circle cx="46" cy="46" r="37" fill="#3661D6" stroke="white" stroke-width="2"/>
<g clip-path="url(#clip0)">
<path d="M75.9081 32.8564C75.736 32.2165 75.3162 31.6709 74.7417 31.3402C74.1669 31.0078 73.4834 30.9179 72.8422 31.09C72.2019 31.2625 71.6563 31.6819 71.3256 32.2564L70.909 32.9813C70.5131 32.7539 70.0074 32.8878 69.7759 33.2816L67.6596 36.8889L66.9346 36.4724C66.7426 36.3613 66.514 36.3312 66.3 36.389C66.0856 36.4471 65.9033 36.5879 65.7931 36.7807C65.5673 37.179 65.7048 37.6851 66.1014 37.9138L66.8264 38.3304L59.7443 50.6032L57.9945 55.2777L57.1613 56.8355C56.6735 57.6842 56.7256 58.7391 57.2947 59.5352L55.4201 61.8346L54.8952 60.5185C54.6585 59.9319 54.1105 59.5299 53.4803 59.4807C52.8497 59.4311 52.2456 59.7427 51.9205 60.285L51.6207 60.7932L51.3375 57.4604C51.2724 56.672 50.6618 56.0381 49.8766 55.9429C49.091 55.8481 48.3473 56.3188 48.0963 57.069L46.0467 63.2179C45.9034 63.6528 46.1378 64.1214 46.5715 64.2679C46.6528 64.3057 46.7403 64.3285 46.8298 64.3342C47.1878 64.3354 47.5068 64.1072 47.6215 63.7679L49.6626 57.6191L49.9543 61.0015C50.0145 61.7232 50.5332 62.3233 51.2386 62.4868C51.9441 62.6503 52.6739 62.3395 53.0454 61.7183L53.3538 61.2098L53.8704 62.5181C54.0897 63.0694 54.5856 63.4628 55.1727 63.5503C55.7598 63.6377 56.3489 63.4062 56.7199 62.9429L58.6613 60.4852C58.8761 60.5413 59.0974 60.5694 59.3195 60.5686C60.2125 60.5755 61.0417 60.1052 61.4941 59.3351L62.3273 57.9437L65.5018 54.0861L72.6587 41.6631L73.3837 42.0797C73.577 42.1904 73.7177 42.373 73.7751 42.5883C73.8329 42.8018 73.8028 43.0297 73.6921 43.2213L70.3593 48.9954C70.2336 49.185 70.1909 49.4177 70.2414 49.6399C70.2918 49.8616 70.4305 50.0532 70.6258 50.17C70.8178 50.2814 71.0465 50.3115 71.2605 50.2538C71.4749 50.1956 71.6571 50.0548 71.7674 49.862L75.1001 44.0878C75.4325 43.513 75.5224 42.8295 75.3499 42.1883C75.1774 41.548 74.758 41.0024 74.1836 40.6717L73.4586 40.2551L75.5416 36.6473C75.769 36.2514 75.6351 35.7462 75.2417 35.5143L75.6583 34.7893C75.9996 34.2055 76.09 33.5082 75.9081 32.8564ZM72.767 33.0895C72.8772 32.8967 73.0603 32.7555 73.2755 32.6982C73.4895 32.6453 73.7157 32.675 73.9085 32.7816C74.1018 32.8918 74.2425 33.0749 74.3003 33.2897C74.3532 33.5037 74.3235 33.7299 74.2169 33.9227L73.8003 34.6477L72.3504 33.8145L72.767 33.0895ZM61.4107 56.3526L60.9941 56.1109L59.761 55.3941L60.944 52.2281L63.5685 53.7444L61.4107 56.3526ZM58.9111 58.7602C58.5592 58.5149 58.451 58.043 58.6613 57.6687L59.0779 56.9441L60.5274 57.7773L60.1108 58.4937C59.9941 58.6963 59.798 58.8404 59.5697 58.8912C59.3415 58.9417 59.1027 58.8945 58.9111 58.7602ZM64.5184 52.3783L61.6356 50.7119L68.3012 39.1635L71.184 40.8299L64.5184 52.3783ZM72.0172 39.3885L69.1344 37.7221L70.8007 34.8393L73.6836 36.5057L72.0172 39.3885Z" fill="white"/>
<path d="M39.1476 58.3437L36.1985 61.2851L34.432 59.5186C34.107 59.1956 33.5822 59.1956 33.2571 59.5186C33.0992 59.6753 33.0106 59.888 33.0106 60.1102C33.0106 60.3323 33.0992 60.5455 33.2571 60.7017L35.0236 62.4682C35.336 62.7782 35.7583 62.9519 36.1985 62.9515C36.6411 62.9539 37.0671 62.7802 37.3816 62.4682L40.3225 59.5186C40.6057 59.1879 40.5866 58.6952 40.279 58.3876C39.971 58.0797 39.4784 58.0606 39.1476 58.3437Z" fill="white"/>
<path d="M29.3328 60.5849C29.3328 64.4965 32.5036 67.667 36.4149 67.667C40.3262 67.667 43.497 64.4965 43.497 60.5849C43.497 60.1247 43.124 59.7517 42.6639 59.7517C42.2037 59.7517 41.8307 60.1247 41.8307 60.5849C41.8307 63.5759 39.4059 66.0006 36.4149 66.0006C33.4239 66.0006 30.9992 63.5759 30.9992 60.5849C30.9992 57.5938 33.4239 55.1691 36.4149 55.1691C37.5874 55.1659 38.7286 55.5462 39.6643 56.2525C40.0325 56.5287 40.5548 56.4539 40.8307 56.0857C41.1069 55.7175 41.0325 55.1956 40.6643 54.9193C38.5182 53.3099 35.6468 53.0512 33.2477 54.2505C30.8482 55.4502 29.3328 57.9026 29.3328 60.5849Z" fill="white"/>
<path d="M55.9949 27.6739C56.4551 27.6739 56.8281 27.3012 56.8281 26.8407C56.8281 26.3805 56.4551 26.0075 55.9949 26.0075H34.332C33.8718 26.0075 33.4988 26.3805 33.4988 26.8407V30.1734C33.4988 30.634 33.8718 31.0066 34.332 31.0066H55.9949C56.4551 31.0066 56.8281 30.634 56.8281 30.1734C56.8281 29.7133 56.4551 29.3402 55.9949 29.3402H35.1652V27.6739H55.9949Z" fill="white"/>
<path d="M36.8315 32.6729C36.3714 32.6729 35.9983 33.046 35.9983 33.5061C35.9983 33.9667 36.3714 34.3393 36.8315 34.3393H53.4953C53.9554 34.3393 54.3285 33.9667 54.3285 33.5061C54.3285 33.046 53.9554 32.6729 53.4953 32.6729H36.8315Z" fill="white"/>
<path d="M58.4945 38.5054H40.1643C39.7041 38.5054 39.3311 38.8784 39.3311 39.3386C39.3311 39.7991 39.7041 40.1718 40.1643 40.1718H58.4945C58.9546 40.1718 59.3277 39.7991 59.3277 39.3386C59.3277 38.8784 58.9546 38.5054 58.4945 38.5054Z" fill="white"/>
<path d="M50.1626 44.3376C50.1626 43.8775 49.7895 43.5045 49.3294 43.5045H32.6656C32.2054 43.5045 31.8324 43.8775 31.8324 44.3376C31.8324 44.7982 32.2054 45.1708 32.6656 45.1708H49.3294C49.7895 45.1708 50.1626 44.7982 50.1626 44.3376Z" fill="white"/>
<path d="M58.4945 43.5045H52.6621C52.202 43.5045 51.8289 43.8775 51.8289 44.3376C51.8289 44.7982 52.202 45.1708 52.6621 45.1708H58.4945C58.9546 45.1708 59.3277 44.7982 59.3277 44.3376C59.3277 43.8775 58.9546 43.5045 58.4945 43.5045Z" fill="white"/>
<path d="M40.9975 49.3368C41.4576 49.3368 41.8307 48.9641 41.8307 48.5036C41.8307 48.0435 41.4576 47.6704 40.9975 47.6704H32.6656C32.2054 47.6704 31.8324 48.0435 31.8324 48.5036C31.8324 48.9641 32.2054 49.3368 32.6656 49.3368H40.9975Z" fill="white"/>
<path d="M44.3302 49.3368H50.1625C50.6227 49.3368 50.9957 48.9641 50.9957 48.5036C50.9957 48.0435 50.6227 47.6704 50.1625 47.6704H44.3302C43.8701 47.6704 43.497 48.0435 43.497 48.5036C43.497 48.9641 43.8701 49.3368 44.3302 49.3368Z" fill="white"/>
<path d="M63.4936 59.3372C63.0335 59.3372 62.6604 59.7103 62.6604 60.1704V68.5023C62.6604 68.9629 62.2874 69.3355 61.8272 69.3355H28.4996C28.0394 69.3355 27.6664 68.9629 27.6664 68.5023V23.51C27.6664 23.0499 28.0394 22.6768 28.4996 22.6768H61.8272C62.2874 22.6768 62.6604 23.0499 62.6604 23.51V39.1575C62.6604 39.6177 63.0335 39.9907 63.4936 39.9907C63.9537 39.9907 64.3268 39.6177 64.3268 39.1575V23.51C64.3268 22.1296 63.2076 21.0104 61.8272 21.0104H28.4996C27.1192 21.0104 26 22.1296 26 23.51V68.5023C26 69.8831 27.1192 71.0019 28.4996 71.0019H61.8272C63.2076 71.0019 64.3268 69.8831 64.3268 68.5023V60.1704C64.3268 59.7103 63.9537 59.3372 63.4936 59.3372Z" fill="white"/>
</g>
<defs>
<clipPath id="clip0">
<rect width="50" height="50" fill="white" transform="translate(26 21)"/>
</clipPath>
</defs>
</svg>
