<svg width="92" height="92" viewBox="0 0 92 92" fill="none" xmlns="http://www.w3.org/2000/svg">
<circle cx="46" cy="46" r="46" fill="#BCCEFF"/>
<g filter="url(#filter0_d)">
<circle cx="46" cy="46" r="38" fill="#3661D6"/>
<circle cx="46" cy="46" r="37" stroke="white" stroke-width="2"/>
</g>
<path d="M46.6527 48.2879C46.5602 48.2678 46.4653 48.2642 46.3716 48.2783C45.4325 48.1689 44.7241 47.3744 44.7225 46.4293C44.7225 45.9764 44.3553 45.6092 43.9024 45.6092C43.4495 45.6092 43.0822 45.9764 43.0822 46.4293C43.0846 48.0075 44.1403 49.3899 45.662 49.8076V50.6278C45.662 51.0807 46.0292 51.4479 46.4822 51.4479C46.9351 51.4479 47.3023 51.0807 47.3023 50.6278V49.8573C49.0587 49.4896 50.2525 47.8538 50.0679 46.0689C49.8829 44.2841 48.3791 42.9277 46.5847 42.9273C45.5563 42.9273 44.7225 42.0935 44.7225 41.0651C44.7225 40.0368 45.5563 39.203 46.5847 39.203C47.6131 39.203 48.4468 40.0368 48.4468 41.0651C48.4468 41.5181 48.814 41.8853 49.267 41.8853C49.7199 41.8853 50.0871 41.5181 50.0871 41.0651C50.0847 39.408 48.9238 37.9788 47.3023 37.6368V36.8903C47.3023 36.4374 46.9351 36.0702 46.4822 36.0702C46.0292 36.0702 45.662 36.4374 45.662 36.8903V37.6869C43.9697 38.149 42.8804 39.7921 43.1135 41.5309C43.3465 43.2697 44.8303 44.5676 46.5847 44.5672C47.5994 44.5672 48.4272 45.3797 48.4456 46.3941C48.4644 47.4085 47.6667 48.251 46.6527 48.2879Z" fill="white"/>
<path d="M34.6918 43.8103C34.6918 50.3786 40.0163 55.7032 46.5847 55.7032C53.153 55.7032 58.4775 50.3786 58.4775 43.8103C58.4775 37.2419 53.153 31.9174 46.5847 31.9174C40.0195 31.9246 34.6994 37.2451 34.6918 43.8103ZM46.5847 33.5576C52.2472 33.5576 56.8373 38.1477 56.8373 43.8103C56.8373 49.4728 52.2472 54.0629 46.5847 54.0629C40.9221 54.0629 36.3321 49.4728 36.3321 43.8103C36.3385 38.1505 40.9249 33.5641 46.5847 33.5576Z" fill="white"/>
<path d="M62.5206 57.7251L56.096 60.7606C55.209 59.1107 53.5074 58.0607 51.6349 58.0078L45.7041 57.8448C44.765 57.818 43.8435 57.5801 43.0086 57.1488L42.4051 56.8361C39.3151 55.2254 35.6321 55.2294 32.5453 56.8465L32.583 55.4793C32.5954 55.0264 32.2386 54.6491 31.7856 54.6367L25.2822 54.4577C24.8292 54.4453 24.4524 54.8021 24.44 55.255L24.0471 69.5267C24.0347 69.9796 24.3915 70.3568 24.8444 70.3692L31.3479 70.5482H31.3704C31.8149 70.5482 32.1785 70.1946 32.1905 69.7505L32.2093 69.0677L33.8989 68.1631C34.562 67.8063 35.3373 67.7214 36.0618 67.9264L46.151 70.7581C46.1686 70.7633 46.1862 70.7673 46.2042 70.7713C46.9335 70.9239 47.6767 71.0004 48.4216 71C49.9994 71.0008 51.5588 70.6608 52.9929 70.0024C53.0281 69.9864 53.0621 69.9676 53.0946 69.9464L67.723 60.4843C68.0874 60.2484 68.2052 59.7698 67.9917 59.3918C66.9057 57.4648 64.4969 56.7307 62.5206 57.7251ZM25.7094 68.7522L26.057 56.12L30.9206 56.2538L30.573 68.8863L25.7094 68.7522ZM52.254 68.5375C50.4724 69.3417 48.4825 69.5635 46.5675 69.1723L36.5055 66.3478C35.373 66.0278 34.1608 66.1604 33.1248 66.7174L32.2614 67.18L32.4925 58.7811C35.2284 56.9614 38.7372 56.7744 41.651 58.2925L42.2545 58.6053C43.3093 59.1499 44.4726 59.4503 45.6592 59.4847L51.5904 59.6477C53.2564 59.6957 54.6712 60.8819 55.0092 62.5142L46.1746 62.2703C45.7217 62.2579 45.3448 62.6151 45.332 63.0676C45.3196 63.5205 45.6768 63.8978 46.1294 63.9102L55.879 64.1785H55.9018C56.3459 64.1781 56.7091 63.8245 56.7211 63.3808C56.7312 63.0244 56.7047 62.6676 56.6419 62.3168L63.2314 59.2032C63.2378 59.2004 63.2443 59.1972 63.2507 59.194C64.1853 58.721 65.3154 58.8792 66.0843 59.5908L52.254 68.5375Z" fill="white"/>
<path d="M47.4048 29.6115V21.8201C47.4048 21.3672 47.0376 21 46.5846 21C46.1317 21 45.7645 21.3672 45.7645 21.8201V29.6115C45.7645 30.0644 46.1317 30.4317 46.5846 30.4317C47.0376 30.4317 47.4048 30.0644 47.4048 29.6115Z" fill="white"/>
<path d="M53.5559 29.6115V25.9209C53.5559 25.4679 53.1887 25.1007 52.7358 25.1007C52.2828 25.1007 51.9156 25.4679 51.9156 25.9209V29.6115C51.9156 30.0644 52.2828 30.4316 52.7358 30.4316C53.1887 30.4316 53.5559 30.0644 53.5559 29.6115Z" fill="white"/>
<path d="M41.2538 29.6115V25.9209C41.2538 25.4679 40.8866 25.1007 40.4336 25.1007C39.9807 25.1007 39.6135 25.4679 39.6135 25.9209V29.6115C39.6135 30.0644 39.9807 30.4316 40.4336 30.4316C40.8866 30.4316 41.2538 30.0644 41.2538 29.6115Z" fill="white"/>
<defs>
<filter id="filter0_d" x="4" y="4" width="84" height="84" filterUnits="userSpaceOnUse" color-interpolation-filters="sRGB">
<feFlood flood-opacity="0" result="BackgroundImageFix"/>
<feColorMatrix in="SourceAlpha" type="matrix" values="0 0 0 0 0 0 0 0 0 0 0 0 0 0 0 0 0 0 127 0"/>
<feOffset/>
<feGaussianBlur stdDeviation="2"/>
<feColorMatrix type="matrix" values="0 0 0 0 0 0 0 0 0 0 0 0 0 0 0 0 0 0 0.15 0"/>
<feBlend mode="normal" in2="BackgroundImageFix" result="effect1_dropShadow"/>
<feBlend mode="normal" in="SourceGraphic" in2="effect1_dropShadow" result="shape"/>
</filter>
</defs>
</svg>
