<svg width="92" height="92" viewBox="0 0 92 92" fill="none" xmlns="http://www.w3.org/2000/svg">
<circle cx="46" cy="46" r="46" fill="#BCCEFF"/>
<circle cx="46" cy="46" r="37" fill="#3661D6" stroke="white" stroke-width="2"/>
<g clip-path="url(#clip0)">
<path d="M58.7832 59.3843C59.1462 58.6001 59.7928 58.0043 60.6039 57.7065C62.2784 57.0917 64.1409 57.9536 64.7557 59.6282C65.0536 60.4393 65.0176 61.318 64.6546 62.1021C64.2917 62.8863 63.645 63.4822 62.8339 63.78C62.4673 63.9146 62.0918 63.9784 61.7222 63.9784C60.4038 63.9784 59.1623 63.1661 58.6821 61.8582C58.3843 61.0471 58.4202 60.1685 58.7832 59.3843ZM59.8744 61.4206C60.2478 62.4377 61.3792 62.9611 62.3963 62.5879C62.889 62.407 63.2818 62.045 63.5022 61.5687C63.7226 61.0924 63.7444 60.5587 63.5636 60.066C63.3827 59.5733 63.0208 59.1805 62.5444 58.9601C62.2815 58.8383 62.0013 58.7772 61.7201 58.7772C61.4916 58.7772 61.2625 58.8176 61.0417 58.8986C60.549 59.0795 60.1562 59.4415 59.9358 59.9178C59.7152 60.3942 59.6934 60.9278 59.8744 61.4206Z" fill="white"/>
<path d="M23.635 44.8573C23.2843 44.8573 23 44.5731 23 44.2223V30.3401C23 29.4232 23.7459 28.6774 24.6627 28.6774H43.3439C43.2207 27.8509 43.3429 27.0067 43.7076 26.2325C44.1995 25.1886 45.0699 24.4028 46.1585 24.0198C46.4852 23.905 46.8435 24.0728 46.9642 24.3972L48.558 28.6774H57.8475L59.4413 24.3971C59.562 24.0727 59.9205 23.905 60.247 24.0197C61.3356 24.4027 62.2059 25.1886 62.6979 26.2325C63.0626 27.0066 63.1847 27.8509 63.0616 28.6774H64.3727C65.2895 28.6774 66.0354 29.4232 66.0354 30.3401V50.1885C66.0354 51.1054 65.2896 51.8512 64.3727 51.8512H57.1872L58.4932 55.3583C58.8965 55.1165 59.326 54.9209 59.7773 54.774C62.9103 53.7538 66.3225 55.35 67.5457 58.4083C68.181 59.9964 68.1491 61.7304 67.4559 63.2909C66.7625 64.852 65.4986 66.0381 63.897 66.6305C63.2005 66.8881 62.4764 67.0163 61.7521 67.0163C60.8597 67.0163 59.9673 66.8216 59.1279 66.4342C57.5703 65.7155 56.3867 64.4323 55.7951 62.8211L53.2029 55.7669L50.6106 62.821C50.019 64.4323 48.8354 65.7155 47.2779 66.4342C46.4384 66.8215 45.5461 67.0163 44.6537 67.0163C43.9296 67.0163 43.2052 66.8881 42.5087 66.6305C40.9071 66.0381 39.6432 64.8521 38.9498 63.291C38.2566 61.7305 38.2247 59.9965 38.8599 58.4083C40.0832 55.3501 43.4958 53.7539 46.6284 54.7741C47.0796 54.921 47.5092 55.1166 47.9125 55.3584L49.2185 51.8513H24.6628C23.746 51.8513 23.0001 51.1054 23.0001 50.1886V48.2654C23.0001 47.9146 23.2844 47.6303 23.6351 47.6303C23.9858 47.6303 24.2701 47.9146 24.2701 48.2654V50.1886C24.2701 50.4051 24.4463 50.5813 24.6628 50.5813H51.2971L43.7147 29.9474H24.6628C24.4463 29.9474 24.2701 30.1236 24.2701 30.3401V44.2224C24.27 44.5731 23.9857 44.8573 23.635 44.8573ZM61.549 26.7738C61.2934 26.2312 60.8924 25.7878 60.3915 25.4847L59.2026 28.6773H61.7719C61.9083 28.0382 61.8327 27.3758 61.549 26.7738ZM64.3727 50.5811C64.5893 50.5812 64.7654 50.405 64.7654 50.1885V30.3401C64.7654 30.1235 64.5893 29.9474 64.3727 29.9474H54.1737V31.6391C54.1737 31.9899 53.8894 32.2741 53.5387 32.2741C53.188 32.2741 52.9037 31.9899 52.9037 31.6391V29.9473H49.0309L52.9038 40.3478V35.6308C52.9038 35.2801 53.1881 34.9958 53.5388 34.9958C53.8895 34.9958 54.1738 35.2801 54.1738 35.6308V43.7584L56.7144 50.5811H64.3727ZM50.5735 51.8512V51.8511L48.8171 56.5679C48.7459 56.7591 48.5872 56.9045 48.3905 56.9586C48.1938 57.0124 47.9832 56.9691 47.8242 56.8413C47.3492 56.4595 46.8146 56.1702 46.235 55.9815C43.7362 55.1677 41.0146 56.4408 40.0389 58.8798C39.532 60.1472 39.5574 61.5306 40.1102 62.7754C40.6634 64.0207 41.6716 64.9667 42.9491 65.4392C44.1852 65.8964 45.5336 65.8402 46.7457 65.2809C47.9947 64.7046 48.9438 63.6755 49.4184 62.383L52.5262 53.9259L51.7638 51.8512H50.5735ZM44.7538 29.0933L56.9871 62.3832C57.4616 63.6756 58.4108 64.7047 59.6598 65.281C60.8721 65.8405 62.2204 65.8966 63.4563 65.4393C64.7338 64.9668 65.742 64.0207 66.2951 62.7754C66.848 61.5306 66.8734 60.1472 66.3664 58.8798C65.59 56.9387 63.7078 55.7362 61.712 55.7362C61.2 55.7362 60.6805 55.8153 60.1703 55.9815C59.5908 56.1702 59.0561 56.4595 58.5812 56.8413C58.4223 56.969 58.2116 57.0125 58.0149 56.9586C57.8182 56.9045 57.6595 56.7591 57.5883 56.5679L55.6781 51.4379C55.6781 51.4378 55.678 51.4378 55.678 51.4378L46.014 25.4847C45.5131 25.7878 45.112 26.2312 44.8564 26.7738C44.5106 27.5078 44.4741 28.3316 44.7538 29.0933Z" fill="white"/>
<path d="M41.6498 59.6282C42.2646 57.9536 44.127 57.0913 45.8016 57.7065C47.476 58.3214 48.3381 60.1839 47.7234 61.8583C47.243 63.1662 46.0018 63.9784 44.6832 63.9784C44.3137 63.9784 43.938 63.9146 43.5715 63.78C42.7604 63.4821 42.1137 62.8863 41.7508 62.1022C41.3878 61.318 41.3519 60.4394 41.6498 59.6282ZM42.9033 61.5688C43.1238 62.0451 43.5166 62.4071 44.0093 62.5879C45.0264 62.961 46.1577 62.4376 46.5312 61.4206C46.9046 60.4035 46.3809 59.2722 45.3638 58.8986C45.1411 58.817 44.9131 58.7781 44.6886 58.7781C43.8877 58.7781 43.1337 59.2716 42.842 60.066C42.661 60.5587 42.6828 61.0924 42.9033 61.5688Z" fill="white"/>
<path d="M58.7486 39.6383V36.7111C57.7391 36.7832 57.3642 37.2446 57.0182 37.2446C56.5856 37.2446 56.3837 36.6966 56.3837 36.4226C56.3837 35.7161 57.768 35.4132 58.7486 35.3844V34.995C58.7486 34.822 58.9648 34.6633 59.1811 34.6633C59.4263 34.6633 59.5993 34.822 59.5993 34.995V35.4132C60.9692 35.5575 62.3391 36.2784 62.3391 38.0954C62.3391 39.9411 60.8971 40.4602 59.5993 40.9217V44.3103C61.0702 44.195 61.4595 43.1855 61.9354 43.1855C62.2959 43.1855 62.5987 43.6614 62.5987 44.0075C62.5987 44.714 61.3874 45.6802 59.5993 45.7091V46.1561C59.5993 46.3291 59.4263 46.4878 59.1811 46.4878C58.9648 46.4878 58.7486 46.3291 58.7486 46.1561V45.6658C57.1912 45.4495 56.1241 44.4689 56.1241 42.6953C56.1241 40.7342 57.494 40.0997 58.7486 39.6383ZM59.5128 39.3642C60.2771 39.0759 60.8971 38.7731 60.897 37.951C60.897 37.2013 60.3203 36.8407 59.5128 36.7398V39.3642ZM58.835 44.2814V41.2389C58.1285 41.5416 57.5661 41.9454 57.5661 42.8538C57.5661 43.6758 58.0563 44.1372 58.835 44.2814Z" fill="white"/>
<path d="M41.3414 37.3497H45.0836C45.357 37.3497 45.5 37.6182 45.5 37.8833C45.5 38.1978 45.3249 38.4259 45.0836 38.4259H43.7867V43.7264C43.7867 43.9716 43.5487 44.1429 43.208 44.1429C42.9205 44.1429 42.6293 43.9999 42.6293 43.7264V38.4259H41.3414C41.0963 38.4259 40.925 38.1991 40.925 37.8743C40.925 37.6216 41.0553 37.3497 41.3414 37.3497Z" fill="white"/>
<path d="M34.1014 43.5349L35.8878 37.6891C35.9675 37.45 36.2458 37.2955 36.5966 37.2955C36.942 37.2955 37.2166 37.45 37.297 37.6914L39.0906 43.5322C39.1049 43.5749 39.1049 43.6139 39.1049 43.6454C39.1049 43.9386 38.7381 44.1429 38.4089 44.1429C38.1232 44.1429 38.0175 43.9966 37.9785 43.8717L37.6298 42.6641H35.5541L35.2048 43.8739C35.1505 44.0474 35.0011 44.1429 34.7839 44.1429C34.4511 44.1429 34.079 43.9301 34.079 43.6454C34.079 43.602 34.0919 43.5634 34.1014 43.5349ZM37.3639 41.6959L36.5966 39.064L35.8292 41.6959H37.3639Z" fill="white"/>
<path d="M26.6634 43.36L28.1941 40.7413L26.7074 38.1398C26.6511 38.0384 26.6226 37.9431 26.6226 37.8563C26.6226 37.5419 26.9893 37.3228 27.3185 37.3228C27.5103 37.3228 27.6708 37.4394 27.7676 37.6458L28.941 39.7913L30.097 37.647C30.2387 37.379 30.4198 37.3228 30.5467 37.3228C30.8802 37.3228 31.2517 37.542 31.2517 37.8564C31.2517 37.9431 31.2231 38.0385 31.1662 38.1409L29.6802 40.7413L31.214 43.366C31.2575 43.4532 31.2787 43.5298 31.2787 43.6004C31.2787 43.916 30.8882 44.1701 30.5647 44.1701C30.4134 44.1701 30.2699 44.073 30.1698 43.9014L28.941 41.6627L27.6972 43.898C27.6314 44.0296 27.495 44.1701 27.3095 44.1701C26.9752 44.1701 26.5865 43.9212 26.5865 43.6004C26.5865 43.5281 26.616 43.4543 26.6634 43.36Z" fill="white"/>
</g>
<defs>
<clipPath id="clip0">
<rect width="45" height="45" fill="white" transform="matrix(-1 0 0 1 68 23)"/>
</clipPath>
</defs>
</svg>
