<svg width="92" height="92" viewBox="0 0 92 92" fill="none" xmlns="http://www.w3.org/2000/svg">
<circle cx="46" cy="46" r="46" fill="#BCCEFF"/>
<circle cx="46" cy="46" r="37" fill="#3661D6" stroke="white" stroke-width="2"/>
<path d="M45.4215 28.7182C45.9103 28.7182 46.3066 28.3219 46.3066 27.833V23.8851C46.3066 23.3963 45.9103 23 45.4215 23C44.9326 23 44.5363 23.3963 44.5363 23.8851V27.833C44.5364 28.3219 44.9327 28.7182 45.4215 28.7182Z" fill="white"/>
<path d="M67.0578 53.4088L65.4941 51.8495C64.9378 51.294 64.1965 50.9879 63.4065 50.9879C62.9014 50.9879 62.4165 51.1136 61.9868 51.3491L59.0402 48.406L59.1837 48.2626C60.3791 47.0648 60.3787 45.1185 59.1836 43.9248C58.7566 43.4969 58.2237 43.2116 57.6428 43.0916C57.7228 42.8155 57.7649 42.5263 57.7649 42.2304C57.7649 41.4082 57.4455 40.6372 56.8674 40.0615C56.4402 39.6336 55.9074 39.3483 55.3266 39.2282C55.4065 38.9522 55.4486 38.6631 55.4486 38.3671C55.4486 37.5448 55.1292 36.7739 54.5501 36.1973C54.1128 35.7604 53.5752 35.4839 53.0106 35.3662C53.3126 34.325 53.0546 33.1535 52.2354 32.333C51.5536 31.654 50.6284 31.3622 49.7367 31.4568L43.8977 30.3516C43.0072 30.1826 41.8951 30.0709 41.1931 30.7112C41.1488 30.7516 41.1037 30.7981 41.0592 30.8499C39.9707 30.4532 38.7013 30.6894 37.8296 31.5601C37.2514 32.1376 36.9329 32.9082 36.9329 33.73C36.9329 34.026 36.9748 34.3151 37.0547 34.5912C36.4745 34.7112 35.9423 34.9961 35.5166 35.4226C34.9373 35.9996 34.6178 36.7693 34.6172 37.5901C34.6169 37.8869 34.659 38.1769 34.7393 38.4538C34.1588 38.5735 33.6263 38.8579 33.1993 39.2843C32.6199 39.8631 32.3009 40.6341 32.3009 41.4555C32.3009 42.0846 32.4887 42.6839 32.8368 43.1902C32.3973 43.3392 31.9948 43.5871 31.6577 43.9238C30.4615 45.1185 30.4611 47.0649 31.6585 48.2645L31.8015 48.4068L28.8545 51.3485C27.7593 50.8328 26.4099 51.026 25.5061 51.9286L23.9415 53.4889C23.385 54.0447 23.0786 54.7861 23.0785 55.5765C23.0785 56.367 23.385 57.1085 23.9415 57.6644L25.8942 59.6147C26.24 59.9602 26.8005 59.9599 27.1459 59.614C27.4914 59.2682 27.4911 58.7077 27.1452 58.3623L25.1926 56.412C24.9709 56.1906 24.8488 55.8939 24.8488 55.5766C24.8488 55.2594 24.9709 54.9628 25.192 54.7419L26.7567 53.1816C27.1477 52.7911 27.746 52.7329 28.2004 53.0046C28.2324 53.0527 28.2694 53.0984 28.3118 53.1408C28.3876 53.2168 28.4742 53.2751 28.5661 53.3177L37.5392 62.2776C37.5818 62.3705 37.6403 62.4579 37.7167 62.5344C37.7911 62.6088 37.8759 62.6664 37.9659 62.7088C38.1556 62.9233 38.2605 63.1973 38.2605 63.4897C38.2605 63.8069 38.1384 64.1036 37.9167 64.325L36.3536 65.8863C35.8917 66.3461 35.1405 66.346 34.68 65.8877L32.7273 63.9348C32.3817 63.5892 31.8213 63.5892 31.4756 63.9348C31.1299 64.2805 31.1299 64.8409 31.4756 65.1866L33.4297 67.1408C34.0048 67.7136 34.7602 67.9999 35.5158 67.9999C36.2717 67.9999 37.0279 67.7132 37.6038 67.1398L39.1679 65.5776C39.7244 65.0217 40.0309 64.2802 40.0309 63.4897C40.0309 62.9255 39.874 62.3867 39.5823 61.9221L42.8989 58.6095C42.9024 58.6059 42.9059 58.6023 42.9095 58.5987C43.2893 58.2061 44.3469 58.2796 45.3697 58.3506C46.0964 58.4011 46.9065 58.4573 47.6981 58.3661L51.3301 61.9938C51.0948 62.4228 50.9692 62.907 50.9692 63.4114C50.9692 64.201 51.2757 64.9421 51.8322 65.498L53.3964 67.0602C53.9526 67.6158 54.6939 67.9218 55.4839 67.9218C56.2738 67.9218 57.0151 67.6159 57.5714 67.0602L67.0584 57.5847C67.6149 57.0289 67.9214 56.2875 67.9214 55.497C67.9213 54.7066 67.6148 53.9651 67.0578 53.4088ZM43.5681 32.0909L47.4078 32.8177L45.1095 35.1151C44.754 34.9442 44.2668 34.6255 43.7322 34.1142C43.0005 33.4142 42.4771 32.606 42.4295 32.102C42.4294 32.1017 42.4294 32.1015 42.4294 32.1012C42.4294 32.1011 42.4293 32.101 42.4293 32.1009C42.4259 32.0647 42.425 32.0358 42.4254 32.0137C42.5412 31.9856 42.8486 31.9544 43.5681 32.0909ZM39.0806 32.8126C39.529 32.3646 40.2256 32.3129 40.7323 32.6561C41.0195 33.86 42.0465 34.9511 42.5085 35.3932C42.8509 35.7209 43.9496 36.7032 45.0586 36.9732C45.2087 37.1883 45.2903 37.4447 45.2903 37.7152C45.2903 38.0637 45.1563 38.3895 44.912 38.6335C44.6685 38.8775 44.3422 39.0118 43.9931 39.0118C43.6439 39.0118 43.3175 38.8775 43.0728 38.6323L43.0728 38.6323L43.0723 38.6318L39.0805 34.6472C38.8371 34.4042 38.7031 34.0784 38.7031 33.73C38.7032 33.3815 38.8372 33.0557 39.0806 32.8126ZM36.7677 36.6751C37.0112 36.4312 37.3372 36.2968 37.6858 36.2968C38.0348 36.2968 38.3618 36.4315 38.6069 36.6763L41.8213 39.8843C42.3274 40.3912 42.3274 41.2162 41.823 41.7214C41.5782 41.9652 41.2507 42.0995 40.901 42.0995C40.5513 42.0995 40.2238 41.9653 39.98 41.7224L39.9799 41.7223L37.5414 39.2843C37.5376 39.2805 37.5335 39.277 37.5296 39.2732L36.7667 38.5106C36.5219 38.2661 36.3872 37.9397 36.3874 37.5915C36.3878 37.2444 36.5221 36.9196 36.7677 36.6751ZM34.4503 40.5369C34.6941 40.2935 35.0207 40.1594 35.3704 40.1594C35.7171 40.1594 36.041 40.2915 36.2836 40.5307L38.7296 42.9756C38.9735 43.2185 39.1079 43.5439 39.1079 43.892C39.1079 44.2399 38.9735 44.5654 38.7287 44.8093C38.485 45.0526 38.1587 45.1866 37.8097 45.1866C37.4602 45.1866 37.1328 45.0522 36.8888 44.8093L36.002 43.9236C36.0019 43.9234 36.0016 43.9232 36.0014 43.923L34.4504 42.3739C34.2059 42.1296 34.0713 41.8034 34.0713 41.4553C34.0713 41.1073 34.2059 40.781 34.4503 40.5369ZM32.9087 45.1762C33.1535 44.9317 33.4806 44.7971 33.8298 44.7971C34.1789 44.7971 34.506 44.9316 34.7507 45.176L35.6386 46.0629C35.8826 46.3058 36.0169 46.6313 36.0169 46.9793C36.0169 47.3274 35.8825 47.6527 35.6368 47.8976C35.3932 48.1415 35.0669 48.2759 34.7178 48.2759C34.3686 48.2759 34.0423 48.1416 33.797 47.8958L33.6858 47.7851C33.6843 47.7836 33.6831 47.782 33.6817 47.7806C33.6801 47.779 33.6783 47.7776 33.6766 47.7761L32.9096 47.012C32.4035 46.5048 32.403 45.6814 32.9087 45.1762ZM50.9469 55.236C50.6014 54.8901 50.0409 54.8898 49.6951 55.2352L48.9076 56.0218C48.1593 56.7701 46.8035 56.6759 45.4922 56.5849C44.0683 56.4859 42.5959 56.3838 41.643 57.362L38.3827 60.6184L30.2297 52.4773L33.115 49.5972C33.5919 49.8896 34.1422 50.0463 34.718 50.0463C35.5405 50.0463 36.3119 49.7274 36.888 49.1502C37.468 48.5726 37.7875 47.8017 37.7875 46.9794C37.7875 46.9718 37.7869 46.9642 37.7869 46.9566C37.7946 46.9566 37.8022 46.9571 37.8099 46.9571C38.6313 46.9571 39.402 46.6392 39.9789 46.063C40.5589 45.4854 40.8784 44.7144 40.8784 43.8922C40.8784 43.8845 40.8779 43.877 40.8779 43.8693C40.8856 43.8693 40.8933 43.8698 40.9012 43.8698C41.7223 43.8698 42.4935 43.5523 43.0743 42.9739C43.6772 42.37 43.9754 41.5749 43.9697 40.7815C43.9776 40.7816 43.9855 40.7821 43.9934 40.7821C44.816 40.782 45.5872 40.4632 46.1642 39.8851C46.7425 39.3076 47.061 38.537 47.061 37.7152C47.061 37.1405 46.9047 36.5911 46.6133 36.1152L49.1422 33.5873C49.3307 33.3997 49.563 33.2819 49.8066 33.2333C49.833 33.2305 49.859 33.2263 49.8847 33.2212C50.2755 33.1673 50.6858 33.2879 50.9847 33.5855C51.4908 34.0925 51.4908 34.9175 50.9865 35.4227L50.2163 36.1897C50.2138 36.1922 50.2111 36.1945 50.2085 36.1971L49.3214 37.0827C48.9755 37.4281 48.9751 37.9886 49.3206 38.3344C49.6662 38.6803 50.2266 38.6806 50.5724 38.3352L51.3456 37.563C51.3458 37.5628 51.346 37.5626 51.3462 37.5625L51.4631 37.446C51.9706 36.9431 52.7929 36.9441 53.3 37.4505C53.544 37.6934 53.6783 38.0189 53.6783 38.3669C53.6783 38.7149 53.544 39.0403 53.298 39.2852L52.5235 40.0614C52.5234 40.0615 52.5233 40.0615 52.5232 40.0617L51.6362 40.9451C51.2898 41.2901 51.2887 41.8506 51.6337 42.1968C51.9786 42.5432 52.539 42.5443 52.8854 42.1994L53.7764 41.312C54.02 41.068 54.3463 40.9337 54.6954 40.9337C55.0446 40.9337 55.371 41.068 55.6163 41.3137C55.8603 41.5567 55.9946 41.8822 55.9946 42.2302C55.9946 42.5782 55.8603 42.9037 55.6149 43.148L54.0707 44.6928C53.7251 45.0386 53.7252 45.599 54.0709 45.9446C54.2437 46.1174 54.4701 46.2037 54.6966 46.2037C54.9232 46.2037 55.1498 46.1172 55.3226 45.9443L56.0794 45.1872C56.0837 45.1831 56.0884 45.1795 56.0927 45.1752C56.3362 44.9312 56.6626 44.7969 57.0117 44.7969C57.3609 44.7969 57.6872 44.9312 57.9316 45.1761C58.4373 45.6812 58.4368 46.5047 57.9316 47.0108L57.1622 47.7794C57.1619 47.7797 57.1615 47.7799 57.1613 47.7802C57.161 47.7804 57.1607 47.7808 57.1605 47.7811L55.9392 49.0009C55.5933 49.3464 55.5929 49.9069 55.9384 50.2527C56.1112 50.4258 56.338 50.5124 56.5647 50.5124C56.791 50.5124 57.0174 50.426 57.1902 50.2535L57.7876 49.6568L60.6508 52.5167L52.4985 60.6591L49.5775 57.7416C49.7812 57.6107 49.976 57.4567 50.1589 57.2738L50.946 56.4877C51.292 56.1424 51.2924 55.5819 50.9469 55.236ZM65.8072 56.3322L56.3202 65.8077C56.0983 66.0294 55.8013 66.1514 55.4838 66.1514C55.1663 66.1514 54.8693 66.0294 54.6472 65.8076L53.0831 64.2453C52.8614 64.024 52.7393 63.7278 52.7393 63.4114C52.7393 63.0949 52.8614 62.7988 53.0831 62.5774L62.5701 53.1019C62.7921 52.8801 63.0891 52.758 63.4066 52.758C63.7241 52.758 64.0211 52.8801 64.2437 53.1024L65.8073 54.6617C66.029 54.8831 66.1511 55.1796 66.1511 55.4969C66.151 55.8143 66.0289 56.1109 65.8072 56.3322Z" fill="white"/>
<path d="M33.668 27.9719C33.8408 28.1444 34.067 28.2305 34.2932 28.2305C34.52 28.2305 34.7468 28.1438 34.9197 27.9706C35.2651 27.6246 35.2645 27.0642 34.9185 26.7189L31.6931 23.4999C31.3471 23.1546 30.7867 23.155 30.4413 23.5011C30.096 23.8471 30.0966 24.4075 30.4426 24.7529L33.668 27.9719Z" fill="white"/>
<path d="M56.5498 28.2306C56.7761 28.2306 57.0025 28.1443 57.1753 27.9718L60.3983 24.7527C60.7441 24.4073 60.7445 23.8468 60.399 23.5009C60.0536 23.1551 59.4932 23.1547 59.1472 23.5002L55.9243 26.7193C55.5784 27.0647 55.5781 27.6252 55.9236 27.9711C56.0965 28.1441 56.3231 28.2306 56.5498 28.2306Z" fill="white"/>
<path d="M28.5212 61.0746C28.1785 61.4231 28.1832 61.9836 28.5319 62.3263L28.5344 62.3288C28.7064 62.4979 28.9298 62.5821 29.153 62.5821C29.3821 62.5821 29.6113 62.4934 29.7849 62.3168C30.1275 61.9682 30.1215 61.4065 29.7729 61.0638C29.4244 60.7211 28.864 60.726 28.5212 61.0746Z" fill="white"/>
<path d="M53.1118 53.961C53.2465 53.961 53.3831 53.9303 53.5113 53.8657C53.9478 53.6456 54.1231 53.1133 53.903 52.6768C53.6829 52.2404 53.1505 52.0649 52.7141 52.2851L52.7092 52.2875C52.2728 52.5077 52.0999 53.0388 52.32 53.4752C52.4753 53.7835 52.7879 53.961 53.1118 53.961Z" fill="white"/>
</svg>
