<svg width="92" height="92" viewBox="0 0 92 92" fill="none" xmlns="http://www.w3.org/2000/svg">
<circle cx="46" cy="46" r="46" fill="#BCCEFF"/>
<circle cx="46" cy="46" r="37" fill="#3661D6" stroke="white" stroke-width="2"/>
<g clip-path="url(#clip0)">
<path d="M64.0704 47.2916C63.7462 47.2916 63.4833 47.5545 63.4833 47.8787V63.7444C63.4833 64.3408 62.9981 64.8258 62.4018 64.8258H48.576C47.9797 64.8258 47.4946 64.3407 47.4946 63.7444V62.184C47.4946 61.8598 47.2317 61.5969 46.9075 61.5969C46.5833 61.5969 46.3204 61.8598 46.3204 62.184V63.7444C46.3204 64.1361 46.4209 64.5046 46.5972 64.8258H28.7123C28.6044 64.8258 28.5166 64.738 28.5166 64.6301V50.4662C28.5166 50.142 28.2537 49.8791 27.9295 49.8791C27.6053 49.8791 27.3424 50.1419 27.3424 50.4662V64.6302C27.3424 65.3855 27.9569 66.0001 28.7122 66.0001H62.4017C63.6455 66.0001 64.6574 64.9882 64.6574 63.7444V47.8787C64.6574 47.5545 64.3946 47.2916 64.0704 47.2916Z" fill="white"/>
<path d="M62.4027 38.608H56.7275V33.862C56.7278 33.7078 56.6645 33.5556 56.5555 33.4468L49.2807 26.172C49.1719 26.063 49.0197 25.9997 48.8655 26H28.7132C27.9579 26 27.3434 26.6145 27.3434 27.3698V48.1178C27.3434 48.442 27.6062 48.7049 27.9305 48.7049C28.2547 48.7049 28.5176 48.442 28.5176 48.1178V27.3698C28.5176 27.262 28.6054 27.1741 28.7133 27.1741H48.2784V32.2964C48.2784 33.4834 49.2441 34.4491 50.4311 34.4491H55.5534V38.6079H48.577C47.3333 38.6079 46.3214 39.6198 46.3214 40.8635V40.9554H37.0183C36.6941 40.9554 36.4312 41.2182 36.4312 41.5425C36.4312 41.8667 36.6941 42.1296 37.0183 42.1296H46.3214V46.1174H37.0183C36.6941 46.1174 36.4312 46.3803 36.4312 46.7045C36.4312 47.0288 36.6941 47.2916 37.0183 47.2916H46.3214V51.2795H37.0183C36.6941 51.2795 36.4312 51.5423 36.4312 51.8666C36.4312 52.1908 36.6941 52.4537 37.0183 52.4537H46.3214V56.4416H37.0183C36.6941 56.4416 36.4312 56.7044 36.4312 57.0287C36.4312 57.353 36.6941 57.6158 37.0183 57.6158H46.3214V59.8358C46.3214 60.16 46.5842 60.4229 46.9085 60.4229C47.2328 60.4229 47.4956 60.16 47.4956 59.8358V40.8635C47.4956 40.2672 47.9808 39.7821 48.577 39.7821H62.4028C62.9991 39.7821 63.4843 40.2673 63.4843 40.8635V45.5303C63.4843 45.8545 63.7472 46.1174 64.0714 46.1174C64.3956 46.1174 64.6585 45.8546 64.6585 45.5303V40.8635C64.6584 39.6198 63.6465 38.608 62.4027 38.608ZM49.4526 32.2964V28.0045L54.723 33.2749H50.431C49.8915 33.2749 49.4526 32.836 49.4526 32.2964Z" fill="white"/>
<path d="M61.7839 42.6845C61.7839 41.9292 61.1694 41.3147 60.4141 41.3147H50.6662C49.9109 41.3147 49.2964 41.9292 49.2964 42.6845V45.9994C49.2964 46.7547 49.9109 47.3692 50.6662 47.3692H60.4141C61.1694 47.3692 61.7839 46.7547 61.7839 45.9994V42.6845ZM60.6098 45.9993C60.6098 46.1072 60.522 46.195 60.4141 46.195H50.6662C50.5584 46.195 50.4705 46.1072 50.4705 45.9993V42.6845C50.4705 42.5766 50.5584 42.4888 50.6662 42.4888H60.4141C60.522 42.4888 60.6098 42.5766 60.6098 42.6845V45.9993Z" fill="white"/>
<path d="M49.2964 52.1906C49.2964 52.9134 49.8844 53.5014 50.6072 53.5014H51.7251C52.4478 53.5014 53.0359 52.9134 53.0359 52.1906V51.0727C53.0359 50.3499 52.4478 49.762 51.7251 49.762H50.6072C49.8844 49.762 49.2964 50.35 49.2964 51.0727V52.1906ZM50.4705 51.0728C50.4705 50.9975 50.5319 50.9362 50.6072 50.9362H51.7251C51.8004 50.9362 51.8617 50.9975 51.8617 51.0728V52.1907C51.8617 52.266 51.8004 52.3274 51.7251 52.3274H50.6072C50.5319 52.3274 50.4705 52.266 50.4705 52.1907V51.0728Z" fill="white"/>
<path d="M57.4099 51.0729C57.4099 50.3501 56.8219 49.7621 56.0992 49.7621H54.9813C54.2585 49.7621 53.6705 50.3501 53.6705 51.0729V52.1908C53.6705 52.9135 54.2585 53.5015 54.9813 53.5015H56.0992C56.8219 53.5015 57.4099 52.9135 57.4099 52.1908V51.0729ZM56.2357 52.1907C56.2357 52.266 56.1744 52.3273 56.0991 52.3273H54.9813C54.906 52.3273 54.8446 52.266 54.8446 52.1907V51.0728C54.8446 50.9975 54.906 50.9362 54.9813 50.9362H56.0992C56.1745 50.9362 56.2358 50.9975 56.2358 51.0728V52.1907H56.2357Z" fill="white"/>
<path d="M61.7839 51.0729C61.7839 50.3501 61.1958 49.7621 60.4731 49.7621H59.3552C58.6324 49.7621 58.0444 50.3501 58.0444 51.0729V52.1908C58.0444 52.9135 58.6324 53.5015 59.3552 53.5015H60.4731C61.1958 53.5015 61.7839 52.9135 61.7839 52.1908V51.0729ZM60.6097 52.1907C60.6097 52.266 60.5484 52.3273 60.4731 52.3273H59.3552C59.2799 52.3273 59.2185 52.266 59.2185 52.1907V51.0728C59.2185 50.9975 59.2799 50.9362 59.3552 50.9362H60.4731C60.5484 50.9362 60.6097 50.9975 60.6097 51.0728V52.1907Z" fill="white"/>
<path d="M49.2964 56.9775C49.2964 57.7002 49.8844 58.2883 50.6072 58.2883H51.7251C52.4478 58.2883 53.0359 57.7002 53.0359 56.9775V55.8596C53.0359 55.1369 52.4478 54.5488 51.7251 54.5488H50.6072C49.8844 54.5488 49.2964 55.1368 49.2964 55.8596V56.9775ZM50.4705 55.8596C50.4705 55.7843 50.5319 55.723 50.6072 55.723H51.7251C51.8004 55.723 51.8617 55.7842 51.8617 55.8596V56.9775C51.8617 57.0528 51.8004 57.1141 51.7251 57.1141H50.6072C50.5319 57.1141 50.4705 57.0528 50.4705 56.9775V55.8596Z" fill="white"/>
<path d="M57.4099 55.8596C57.4099 55.1369 56.8219 54.5488 56.0992 54.5488H54.9813C54.2585 54.5488 53.6705 55.1368 53.6705 55.8596V56.9775C53.6705 57.7002 54.2585 58.2883 54.9813 58.2883H56.0992C56.8219 58.2883 57.4099 57.7002 57.4099 56.9775V55.8596ZM56.2357 56.9775C56.2357 57.0528 56.1744 57.1141 56.0991 57.1141H54.9813C54.906 57.1141 54.8446 57.0528 54.8446 56.9775V55.8596C54.8446 55.7843 54.906 55.723 54.9813 55.723H56.0992C56.1745 55.723 56.2358 55.7842 56.2358 55.8596V56.9775H56.2357Z" fill="white"/>
<path d="M49.2964 61.7642C49.2964 62.487 49.8844 63.075 50.6072 63.075H51.7251C52.4478 63.075 53.0359 62.487 53.0359 61.7642V60.6464C53.0359 59.9236 52.4478 59.3356 51.7251 59.3356H50.6072C49.8844 59.3356 49.2964 59.9235 49.2964 60.6464V61.7642ZM50.4705 60.6464C50.4705 60.5711 50.5319 60.5098 50.6072 60.5098H51.7251C51.8004 60.5098 51.8617 60.571 51.8617 60.6464V61.7643C51.8617 61.8396 51.8004 61.901 51.7251 61.901H50.6072C50.5319 61.901 50.4705 61.8396 50.4705 61.7643V60.6464Z" fill="white"/>
<path d="M56.0991 59.3356H54.9813C54.2585 59.3356 53.6705 59.9235 53.6705 60.6463V61.7642C53.6705 62.487 54.2585 63.075 54.9813 63.075H56.0992C56.8219 63.075 57.4099 62.487 57.4099 61.7642V60.6463C57.4099 59.9235 56.8219 59.3356 56.0991 59.3356ZM56.2357 61.7642C56.2357 61.8395 56.1744 61.9008 56.0991 61.9008H54.9813C54.906 61.9008 54.8446 61.8395 54.8446 61.7642V60.6463C54.8446 60.571 54.906 60.5096 54.9813 60.5096H56.0992C56.1745 60.5096 56.2358 60.5709 56.2358 60.6463V61.7642H56.2357Z" fill="white"/>
<path d="M60.3622 54.5488H59.466C58.6821 54.5488 58.0444 55.1866 58.0444 55.9705V61.6534C58.0444 62.4373 58.6821 63.0751 59.466 63.0751H60.3622C61.1461 63.0751 61.7839 62.4373 61.7839 61.6534V55.9705C61.7839 55.1866 61.1461 54.5488 60.3622 54.5488ZM60.6097 61.6534C60.6097 61.7899 60.4987 61.9009 60.3622 61.9009H59.466C59.3296 61.9009 59.2185 61.7899 59.2185 61.6534V55.9705C59.2185 55.834 59.3296 55.723 59.466 55.723H60.3622C60.4987 55.723 60.6097 55.8341 60.6097 55.9705V61.6534Z" fill="white"/>
<path d="M32.0318 36.9675H34.3754C34.6996 36.9675 34.9625 36.7047 34.9625 36.3804C34.9625 36.0562 34.6997 35.7933 34.3754 35.7933H32.0318C31.7076 35.7933 31.4447 36.0562 31.4447 36.3804C31.4447 36.7047 31.7076 36.9675 32.0318 36.9675Z" fill="white"/>
<path d="M37.0173 36.9675H48.3165C48.6407 36.9675 48.9036 36.7047 48.9036 36.3804C48.9036 36.0562 48.6407 35.7933 48.3165 35.7933H37.0173C36.6931 35.7933 36.4302 36.0562 36.4302 36.3804C36.4303 36.7047 36.6931 36.9675 37.0173 36.9675Z" fill="white"/>
<path d="M32.0318 42.1295H34.3754C34.6996 42.1295 34.9625 41.8666 34.9625 41.5424C34.9625 41.2182 34.6997 40.9553 34.3754 40.9553H32.0318C31.7076 40.9553 31.4447 41.2181 31.4447 41.5424C31.4447 41.8667 31.7076 42.1295 32.0318 42.1295Z" fill="white"/>
<path d="M32.0318 47.2915H34.3754C34.6996 47.2915 34.9625 47.0286 34.9625 46.7044C34.9625 46.3802 34.6997 46.1173 34.3754 46.1173H32.0318C31.7076 46.1173 31.4447 46.3802 31.4447 46.7044C31.4447 47.0286 31.7076 47.2915 32.0318 47.2915Z" fill="white"/>
<path d="M32.0318 52.4536H34.3754C34.6996 52.4536 34.9625 52.1908 34.9625 51.8665C34.9625 51.5423 34.6997 51.2794 34.3754 51.2794H32.0318C31.7076 51.2794 31.4447 51.5423 31.4447 51.8665C31.4447 52.1908 31.7076 52.4536 32.0318 52.4536Z" fill="white"/>
<path d="M32.0318 57.6156H34.3754C34.6996 57.6156 34.9625 57.3528 34.9625 57.0285C34.9625 56.7042 34.6997 56.4414 34.3754 56.4414H32.0318C31.7076 56.4414 31.4447 56.7042 31.4447 57.0285C31.4447 57.3528 31.7076 57.6156 32.0318 57.6156Z" fill="white"/>
</g>
<defs>
<clipPath id="clip0">
<rect width="40" height="40" fill="white" transform="translate(26 26)"/>
</clipPath>
</defs>
</svg>
