<svg width="13" height="17" viewBox="0 0 13 17" fill="none" xmlns="http://www.w3.org/2000/svg">
<path d="M11.5019 9.40025H11.4945L11.7701 9.00683C12.4105 8.09253 12.7496 7.03171 12.75 5.95L11.5019 9.40025ZM11.5019 9.40025L6.49995 16.5634L6.15665 16.072L4.78607 14.1098C3.7794 12.6684 2.54184 10.8961 1.49794 9.40025H1.50538L1.23109 9.00718C0.612615 8.12091 0.25 7.07374 0.25 5.95C0.25 5.20469 0.410335 4.46607 0.722549 3.7761C1.0348 3.08605 1.49315 2.45755 2.07261 1.92712C2.65211 1.39665 3.34126 0.974818 4.10119 0.686677C4.86114 0.398531 5.67632 0.25 6.5 0.25C7.32368 0.25 8.13886 0.398531 8.89881 0.686677C9.65874 0.974818 10.3479 1.39665 10.9274 1.92712C11.5069 2.45755 11.9652 3.08605 12.2775 3.7761C12.5897 4.46604 12.75 5.20463 12.75 5.94991L11.5019 9.40025ZM4.3614 7.93753C4.93206 8.4599 5.70166 8.75 6.5 8.75C7.29834 8.75 8.06794 8.4599 8.6386 7.93753C9.21 7.41448 9.53571 6.7001 9.53571 5.95C9.53571 5.1999 9.21 4.48552 8.6386 3.96247C8.06794 3.4401 7.29834 3.15 6.5 3.15C5.70166 3.15 4.93206 3.4401 4.3614 3.96247C3.79 4.48552 3.46429 5.1999 3.46429 5.95C3.46429 6.7001 3.79 7.41448 4.3614 7.93753Z" stroke="black" stroke-width="0.5"/>
</svg>
