<svg width="92" height="92" viewBox="0 0 92 92" fill="none" xmlns="http://www.w3.org/2000/svg">
<circle cx="46" cy="46" r="46" fill="#BCCEFF"/>
<circle cx="46" cy="46" r="37" fill="#3661D6" stroke="white" stroke-width="2"/>
<path d="M70.8833 29.3847L68.2149 23.2125C67.8845 22.4499 67.1704 21.9765 66.351 21.9765H37.7385C36.4472 21.9765 35.6755 23.0179 35.6755 24.0246V44.6301C35.6755 45.0348 36.004 45.3633 36.4087 45.3633C36.8138 45.3633 37.1419 45.0348 37.1419 44.6301V24.0246C37.1419 23.5642 37.5321 23.4429 37.7385 23.4429H64.3666C64.3159 23.6225 64.2884 23.8167 64.2884 24.0246V35.5236C64.2884 35.9288 64.6165 36.2568 65.0216 36.2568C65.4264 36.2568 65.7548 35.9288 65.7548 35.5236V31.3595H69.5855C70.0631 31.3595 70.5049 31.1211 70.7673 30.7221C71.0294 30.3231 71.0729 29.823 70.8833 29.3847ZM65.7548 29.8931V24.0246C65.7548 23.5642 66.1447 23.4429 66.351 23.4429C66.5177 23.4429 66.7432 23.5039 66.8695 23.7946L69.5058 29.8931H65.7548Z" fill="white"/>
<path d="M65.0216 53.7656C64.6169 53.7656 64.2885 54.094 64.2885 54.4988V62.7702L61.8577 61.1196C61.609 60.9506 61.2825 60.9506 61.0341 61.1196L57.8698 63.268L54.7048 61.1196C54.4561 60.9506 54.1295 60.9506 53.8812 61.1196L50.7161 63.268L47.5518 61.1196C47.3035 60.9506 46.977 60.9506 46.7282 61.1196L43.8852 63.0494L44.8491 58.5729H44.8903C45.886 58.5729 46.6962 57.7626 46.6962 56.7666V55.1694C46.6962 54.1738 45.886 53.3635 44.8903 53.3635H40.0853L36.0292 46.9727C35.8121 46.631 35.3589 46.5299 35.0171 46.7469C34.6753 46.964 34.5738 47.4168 34.7909 47.7586L38.3485 53.3635H29.3477L32.9053 47.7586C33.1224 47.4168 33.0209 46.964 32.6791 46.7469C32.3373 46.5299 31.8841 46.631 31.667 46.9727L27.6109 53.3635H22.8059C21.8102 53.3631 21 54.1734 21 55.1694V56.7666C21 57.7626 21.8102 58.5725 22.8059 58.5725H22.8471L23.269 60.531C23.343 60.8747 23.647 61.11 23.985 61.11C24.0361 61.11 24.088 61.1047 24.1399 61.0932C24.5358 61.0082 24.7876 60.6183 24.7022 60.2223L24.347 58.5725H43.3492L41.3221 67.9876C41.2511 68.3175 40.9547 68.5571 40.6171 68.5571H27.0791C26.7419 68.5571 26.4451 68.3175 26.3742 67.9876L25.3247 63.1127C25.2393 62.7168 24.849 62.465 24.4534 62.5501C24.0579 62.6355 23.8061 63.0254 23.8912 63.4214L24.9406 68.2962C25.1561 69.2971 26.0556 70.0235 27.0791 70.0235H40.6171C41.641 70.0235 42.5401 69.2971 42.7556 68.2962L43.4903 64.8839C43.5147 64.8862 43.5388 64.8873 43.5632 64.8873C43.707 64.8873 43.8508 64.845 43.9752 64.7607L47.1402 62.6123L50.3041 64.7607C50.5529 64.9297 50.8794 64.9297 51.1281 64.7607L54.2932 62.6123L57.4582 64.7607C57.707 64.9297 58.0331 64.9297 58.2818 64.7607L61.4457 62.6123L64.61 64.7607C64.8343 64.9133 65.125 64.9293 65.365 64.8023C65.6049 64.6749 65.7548 64.4258 65.7548 64.1542V54.4988C65.7548 54.094 65.4268 53.7656 65.0216 53.7656ZM22.4664 56.7666V55.1694C22.4664 54.9821 22.6186 54.8295 22.8059 54.8295H26.6801L26.5489 55.0363C26.3318 55.3781 26.4329 55.8312 26.7751 56.0483C26.8968 56.1257 27.0329 56.1627 27.1672 56.1627C27.4098 56.1627 27.6471 56.0422 27.7867 55.8225L28.4169 54.8299H39.2797L39.9095 55.8225C40.0491 56.0422 40.2867 56.1627 40.5294 56.1627C40.6636 56.1627 40.7994 56.1257 40.9215 56.0483C41.2633 55.8312 41.3644 55.3784 41.1477 55.0363L41.0165 54.8295H44.8903C45.0776 54.8295 45.2298 54.9821 45.2298 55.1694V56.7666C45.2298 56.9539 45.0776 57.1065 44.8903 57.1065H44.2697C44.2605 57.1061 44.2514 57.1061 44.2418 57.1065H23.4529C23.4448 57.1061 23.4364 57.1061 23.4284 57.1065H22.8059C22.6186 57.1065 22.4664 56.9539 22.4664 56.7666Z" fill="white"/>
<path d="M43.1173 35.0872H43.1238C43.3473 35.0853 43.5575 34.9815 43.6948 34.8057L46.541 31.163C46.7901 30.8441 46.7336 30.3833 46.4143 30.1338C46.0954 29.8843 45.6346 29.9411 45.3851 30.2601L43.1062 33.1772L42.5043 32.4352C42.2491 32.1209 41.7875 32.0728 41.4731 32.3276C41.1584 32.5828 41.1104 33.0448 41.3656 33.3591L42.5477 34.8163C42.687 34.988 42.8964 35.0872 43.1173 35.0872Z" fill="white"/>
<path d="M50.0864 33.6019H60.8252C61.2303 33.6019 61.5584 33.2735 61.5584 32.8687C61.5584 32.4636 61.2303 32.1356 60.8252 32.1356H50.0864C49.6813 32.1356 49.3532 32.4636 49.3532 32.8687C49.3532 33.2735 49.6813 33.6019 50.0864 33.6019Z" fill="white"/>
<path d="M41.3656 41.0895L42.5477 42.5463C42.687 42.718 42.8964 42.8175 43.1173 42.8175H43.1238C43.3473 42.8156 43.5575 42.7119 43.6948 42.536L46.541 38.8933C46.7901 38.5741 46.7336 38.1132 46.4143 37.8641C46.0954 37.6147 45.6346 37.6715 45.3851 37.9904L43.1062 40.9075L42.5043 40.1655C42.2491 39.8512 41.7875 39.8028 41.4731 40.058C41.1584 40.3132 41.1104 40.7748 41.3656 41.0895Z" fill="white"/>
<path d="M50.0864 41.3315H60.8252C61.2303 41.3315 61.5584 41.0035 61.5584 40.5984C61.5584 40.1936 61.2303 39.8652 60.8252 39.8652H50.0864C49.6813 39.8652 49.3532 40.1936 49.3532 40.5984C49.3532 41.0035 49.6813 41.3315 50.0864 41.3315Z" fill="white"/>
<path d="M41.3656 48.819L42.5477 50.2762C42.687 50.4479 42.8964 50.5475 43.1173 50.5475H43.1238C43.3473 50.5452 43.5575 50.4414 43.6948 50.2656L46.541 46.6229C46.7901 46.304 46.7336 45.8432 46.4143 45.5937C46.0954 45.3446 45.6346 45.4011 45.3851 45.72L43.1062 48.6371L42.5043 47.8951C42.2491 47.5808 41.7875 47.5323 41.4731 47.7875C41.1584 48.0427 41.1104 48.5047 41.3656 48.819Z" fill="white"/>
<path d="M30.0859 62.129V60.6641C30.0859 60.2594 29.7574 59.9313 29.3527 59.9313C28.9476 59.9313 28.6195 60.2594 28.6195 60.6641V62.129C28.6195 62.5341 28.9476 62.8622 29.3527 62.8622C29.7574 62.8622 30.0859 62.5341 30.0859 62.129Z" fill="white"/>
<path d="M34.5816 62.129V60.6641C34.5816 60.2594 34.2532 59.9313 33.8484 59.9313C33.4433 59.9313 33.1152 60.2594 33.1152 60.6641V62.129C33.1152 62.5341 33.4433 62.8622 33.8484 62.8622C34.2532 62.8622 34.5816 62.5341 34.5816 62.129Z" fill="white"/>
<path d="M39.0767 62.129V60.6641C39.0767 60.2594 38.7487 59.9313 38.3435 59.9313C37.9388 59.9313 37.6104 60.2594 37.6104 60.6641V62.129C37.6104 62.5341 37.9388 62.8622 38.3435 62.8622C38.7487 62.8622 39.0767 62.5341 39.0767 62.129Z" fill="white"/>
<path d="M32.3334 65.5793V64.1148C32.3334 63.7097 32.0053 63.3817 31.6002 63.3817C31.1955 63.3817 30.867 63.7097 30.867 64.1148V65.5793C30.867 65.9844 31.1955 66.3125 31.6002 66.3125C32.0053 66.3125 32.3334 65.9844 32.3334 65.5793Z" fill="white"/>
<path d="M36.829 65.5793V64.1148C36.829 63.7097 36.5006 63.3817 36.0959 63.3817C35.6907 63.3817 35.3627 63.7097 35.3627 64.1148V65.5793C35.3627 65.9844 35.6907 66.3125 36.0959 66.3125C36.5006 66.3125 36.829 65.9844 36.829 65.5793Z" fill="white"/>
<path d="M70.228 41.4564C69.8771 41.2538 69.4289 41.374 69.2263 41.7246L68.7769 42.5028L65.0622 40.3581L65.8408 39.0093C65.8781 38.9448 65.9331 38.9188 65.9727 38.9082C66.0117 38.8975 66.0727 38.8925 66.1368 38.9299L68.5717 40.3356C68.9227 40.5378 69.3709 40.418 69.5734 40.0671C69.7756 39.7165 69.6555 39.2679 69.3049 39.0657L66.87 37.66C66.4809 37.4349 66.0273 37.3754 65.5932 37.4918C65.1591 37.6081 64.7959 37.8866 64.5712 38.2757L63.4268 40.2582C63.4264 40.2586 63.4261 40.2593 63.4257 40.2597C63.4253 40.2605 63.4249 40.2609 63.4245 40.2616L59.1906 47.5954H50.0864C49.6817 47.5954 49.3532 47.9234 49.3532 48.3286C49.3532 48.7333 49.6817 49.0618 50.0864 49.0618H58.3437L56.6054 52.0727C56.5451 52.1772 56.5115 52.2955 56.5077 52.416L56.465 53.7702C56.4642 53.7809 56.4638 53.7916 56.4638 53.8027L56.3628 57.0047C56.3448 57.5723 56.6393 58.1011 57.131 58.3849C57.3695 58.5226 57.6346 58.5913 57.8997 58.5913C58.1808 58.5913 58.4616 58.5138 58.7103 58.3601L61.4355 56.6698C61.4428 56.6652 61.4504 56.6606 61.4577 56.6561L62.6116 55.9404C62.7142 55.8767 62.7997 55.7886 62.8603 55.6837L69.6791 43.873C69.6795 43.8722 69.6799 43.8719 69.6803 43.8711C69.6806 43.8703 69.6814 43.8692 69.6818 43.8684L70.4962 42.4577C70.6988 42.1072 70.5786 41.6589 70.228 41.4564ZM57.9375 57.1138C57.9256 57.1211 57.9012 57.1363 57.8642 57.115C57.8272 57.0936 57.828 57.0646 57.8284 57.0509L57.8913 55.0581L59.632 56.0629L57.9375 57.1138ZM61.6824 54.791L61.0457 55.1863L57.9439 53.3953L57.9676 52.6464L60.2396 48.7108C60.2465 48.6997 60.2526 48.6891 60.2587 48.6776L64.329 41.628L68.0438 43.7731L61.6824 54.791Z" fill="white"/>
</svg>
