<svg width="92" height="92" viewBox="0 0 92 92" fill="none" xmlns="http://www.w3.org/2000/svg">
<circle cx="46" cy="46" r="46" fill="#BCCEFF"/>
<circle cx="46" cy="46" r="37" fill="#3661D6" stroke="white" stroke-width="2"/>
<g opacity="0.9">
<path d="M26.5484 65.4516H28.0645V66.9677H26.5484V65.4516Z" fill="white"/>
<path d="M29.5806 65.4516H31.0967V66.9677H29.5806V65.4516Z" fill="white"/>
<path d="M32.6129 65.4516H34.129V66.9677H32.6129V65.4516Z" fill="white"/>
<path d="M58.3871 65.4516H64.4516V66.9677H58.3871V65.4516Z" fill="white"/>
<path d="M67.4839 62.4194V37.4032C67.4839 35.3134 65.7834 33.6129 63.6935 33.6129H61.4194C61.4194 27.7605 56.6589 23 50.8065 23C44.954 23 40.1935 27.7605 40.1935 33.6129H27.3065C25.2166 33.6129 23.5161 35.3134 23.5161 37.4032V62.4194H22V66.2097C22 68.2995 23.7005 70 25.7903 70H65.2097C67.2995 70 69 68.2995 69 66.2097V62.4194H67.4839ZM63.6935 35.129C64.9472 35.129 65.9677 36.1495 65.9677 37.4032V62.4194H64.4516V38.1613C64.4516 37.3251 63.7716 36.6452 62.9355 36.6452H60.9722C61.1184 36.154 61.2239 35.6469 61.2979 35.129H63.6935ZM42.1502 30.8272L50.1961 34.18L52.9511 42.4435C52.2619 42.6112 51.5464 42.7097 50.8065 42.7097C45.7902 42.7097 41.7097 38.6292 41.7097 33.6129C41.7097 32.6409 41.8666 31.7055 42.1502 30.8272ZM54.3913 41.9705L51.6737 33.8176L57.7456 27.7453C59.0889 29.3307 59.9032 31.3772 59.9032 33.6129C59.9032 37.3562 57.629 40.5765 54.3913 41.9705ZM50.8065 24.5161C53.0421 24.5161 55.0887 25.3305 56.6748 26.673L50.6299 32.7175L42.7376 29.4299C44.2544 26.5146 47.2989 24.5161 50.8065 24.5161ZM25.0323 37.4032C25.0323 36.1495 26.0528 35.129 27.3065 35.129H40.315C40.389 35.6469 40.4937 36.154 40.6407 36.6452H28.0645C27.2284 36.6452 26.5484 37.3251 26.5484 38.1613V62.4194H25.0323V37.4032ZM67.4839 66.2097C67.4839 67.4634 66.4634 68.4839 65.2097 68.4839H25.7903C24.5366 68.4839 23.5161 67.4634 23.5161 66.2097V63.9355H39.1338C40.2239 64.9156 41.6186 65.4516 43.0963 65.4516H47.9045C49.3821 65.4516 50.7768 64.9156 51.8669 63.9355H61.4194V62.4194H51.2506L51.0285 62.6414C50.1939 63.4761 49.0849 63.9355 47.9037 63.9355H43.0955C41.9151 63.9355 40.8054 63.4761 39.9707 62.6414L39.7494 62.4194H28.0645V38.1613H41.2322C42.9401 41.741 46.5834 44.2258 50.8065 44.2258C55.0295 44.2258 58.6729 41.741 60.3807 38.1613H62.9355V63.9355H67.4839V66.2097Z" fill="white"/>
<path d="M59.1451 54.8387C58.6798 54.8387 58.2468 54.9805 57.8859 55.2215L55.2412 53.2386C55.3085 53.0239 55.3548 52.8003 55.3548 52.5645C55.3548 51.3108 54.3343 50.2903 53.0806 50.2903C51.8269 50.2903 50.8064 51.3108 50.8064 52.5645C50.8064 52.8255 50.8593 53.0724 50.9404 53.3059L46.6948 56.7028C46.3469 56.4859 45.9397 56.3549 45.5 56.3549C44.9899 56.3549 44.5235 56.5299 44.1437 56.8142L40.8749 54.6348C40.9205 54.4567 40.9516 54.2731 40.9516 54.0807C40.9516 52.827 39.9311 51.8065 38.6774 51.8065C37.4237 51.8065 36.4032 52.827 36.4032 54.0807C36.4032 54.2731 36.4343 54.4567 36.4798 54.6348L33.211 56.8142C32.8312 56.5292 32.3649 56.3549 31.8548 56.3549C30.6011 56.3549 29.5806 57.3754 29.5806 58.6291C29.5806 59.8828 30.6011 60.9033 31.8548 60.9033C33.1085 60.9033 34.129 59.8828 34.129 58.6291C34.129 58.4366 34.0979 58.253 34.0524 58.0749L37.3211 55.8955C37.7009 56.1805 38.1673 56.3549 38.6774 56.3549C39.1874 56.3549 39.6538 56.1805 40.0336 55.8955L43.3024 58.0749C43.2569 58.253 43.2258 58.4373 43.2258 58.6291C43.2258 59.8828 44.2463 60.9033 45.5 60.9033C46.7536 60.9033 47.7741 59.8828 47.7741 58.6291C47.7741 58.3681 47.7212 58.1212 47.6402 57.8876L51.8858 54.4908C52.2337 54.7077 52.6409 54.8387 53.0806 54.8387C53.5459 54.8387 53.9789 54.697 54.3398 54.456L56.9846 56.4389C56.9172 56.6536 56.8709 56.8771 56.8709 57.1129C56.8709 58.3666 57.8914 59.3871 59.1451 59.3871C60.3988 59.3871 61.4193 58.3666 61.4193 57.1129C61.4193 55.8592 60.3988 54.8387 59.1451 54.8387ZM31.8548 59.3871C31.4373 59.3871 31.0967 59.0466 31.0967 58.6291C31.0967 58.2115 31.4373 57.871 31.8548 57.871C32.2723 57.871 32.6129 58.2115 32.6129 58.6291C32.6129 59.0466 32.2723 59.3871 31.8548 59.3871ZM38.6774 54.8387C38.2598 54.8387 37.9193 54.4982 37.9193 54.0807C37.9193 53.6631 38.2598 53.3226 38.6774 53.3226C39.0949 53.3226 39.4354 53.6631 39.4354 54.0807C39.4354 54.4982 39.0949 54.8387 38.6774 54.8387ZM45.5 59.3871C45.0824 59.3871 44.7419 59.0466 44.7419 58.6291C44.7419 58.2115 45.0824 57.871 45.5 57.871C45.9175 57.871 46.258 58.2115 46.258 58.6291C46.258 59.0466 45.9175 59.3871 45.5 59.3871ZM53.0806 53.3226C52.6631 53.3226 52.3225 52.9821 52.3225 52.5645C52.3225 52.147 52.6631 51.8065 53.0806 51.8065C53.4981 51.8065 53.8387 52.147 53.8387 52.5645C53.8387 52.9821 53.4981 53.3226 53.0806 53.3226ZM59.1451 57.871C58.7276 57.871 58.3871 57.5305 58.3871 57.1129C58.3871 56.6954 58.7276 56.3549 59.1451 56.3549C59.5626 56.3549 59.9032 56.6954 59.9032 57.1129C59.9032 57.5305 59.5626 57.871 59.1451 57.871Z" fill="white"/>
<path d="M41.7096 39.6774H29.5806V50.2903H41.7096V39.6774ZM40.1935 48.7742H31.0967V41.1936H40.1935V48.7742Z" fill="white"/>
<path d="M32.6129 42.7097H38.6774V44.2258H32.6129V42.7097Z" fill="white"/>
<path d="M32.6129 45.7419H38.6774V47.2581H32.6129V45.7419Z" fill="white"/>
<path d="M43.2258 47.2581H44.7419V48.7742H43.2258V47.2581Z" fill="white"/>
<path d="M46.2581 47.2581H61.4194V48.7742H46.2581V47.2581Z" fill="white"/>
</g>
</svg>
