<svg width="92" height="92" viewBox="0 0 92 92" fill="none" xmlns="http://www.w3.org/2000/svg">
<circle cx="46" cy="46" r="46" fill="#BCCEFF"/>
<circle cx="46" cy="46" r="37" fill="#3661D6" stroke="white" stroke-width="2"/>
<path d="M65.5313 55.375H64.75V53.8125H66.3125C66.5197 53.8125 66.7185 53.7302 66.865 53.5837C67.0115 53.4372 67.0938 53.2385 67.0938 53.0313V49.9063C67.0938 49.6991 67.0115 49.5003 66.865 49.3538C66.7185 49.2073 66.5197 49.125 66.3125 49.125H56.9375V35.8438C56.9375 35.6365 56.8552 35.4378 56.7087 35.2913C56.5622 35.1448 56.3635 35.0625 56.1563 35.0625H53.4844C52.9644 32.5058 51.8123 30.1201 50.1331 28.1233C48.4539 26.1265 46.3013 24.5821 43.8717 23.6313C41.4421 22.6804 38.813 22.3534 36.2246 22.68C33.6361 23.0066 31.1706 23.9765 29.0534 25.5011C26.9362 27.0256 25.2346 29.0563 24.1041 31.4077C22.9736 33.7591 22.4502 36.3562 22.5816 38.9619C22.713 41.5676 23.4951 44.0988 24.8565 46.3245C26.2179 48.5502 28.1151 50.3993 30.375 51.7031V62.4063C30.3769 63.0273 30.6244 63.6223 31.0636 64.0615C31.5027 64.5006 32.0978 64.7481 32.7188 64.75H56.1563C56.3635 64.75 56.5622 64.6677 56.7087 64.5212C56.8552 64.3747 56.9375 64.176 56.9375 63.9688V50.6875H65.5313V52.25H63.9688C63.7616 52.25 63.5629 52.3323 63.4164 52.4788C63.2699 52.6253 63.1875 52.8241 63.1875 53.0313V55.375H62.4063C61.3703 55.375 60.3767 55.7866 59.6442 56.5191C58.9116 57.2517 58.5 58.2453 58.5 59.2813V65.5313C58.5 66.5673 58.9116 67.5608 59.6442 68.2934C60.3767 69.026 61.3703 69.4375 62.4063 69.4375H65.5313C66.5673 69.4375 67.5609 69.026 68.2934 68.2934C69.026 67.5608 69.4375 66.5673 69.4375 65.5313V59.2813C69.4375 58.2453 69.026 57.2517 68.2934 56.5191C67.5609 55.7866 66.5673 55.375 65.5313 55.375ZM49.3985 29.6719C50.6069 31.2688 51.457 33.1074 51.8907 35.0625H45.836C45.696 33.5692 45.4321 32.0902 45.0469 30.6406C46.5177 30.4166 47.9716 30.093 49.3985 29.6719ZM48.2891 28.375C47.068 28.6998 45.8289 28.9528 44.5782 29.1328C44.0478 27.5201 43.2299 26.0167 42.1641 24.6953C44.4893 25.3724 46.5995 26.6401 48.2891 28.375ZM38.9688 24.2578C40.5391 24.7422 41.9766 26.625 42.9844 29.3359C41.6875 29.4766 40.336 29.5547 38.9688 29.5781V24.2578ZM38.9688 31.1406C40.4753 31.121 41.9799 31.0245 43.4766 30.8516C43.8562 32.2312 44.1227 33.6395 44.2735 35.0625H38.9688V31.1406ZM37.4063 24.25V29.5781C36.0313 29.5547 34.6797 29.4766 33.375 29.3359C34.375 26.6172 35.8047 24.7266 37.4063 24.25ZM32.7188 35.0625C32.5072 35.0657 32.297 35.0973 32.0938 35.1563C32.239 33.7011 32.5082 32.2609 32.8985 30.8516C34.3952 31.0245 35.8997 31.121 37.4063 31.1406V35.0625H32.7188ZM33.5 36.625V60.0625H32.7188C32.4523 60.0646 32.1881 60.1122 31.9375 60.2031V38.1875C31.9375 37.8906 31.9532 37.6016 31.961 37.3047C31.9812 37.1179 32.0698 36.9451 32.2097 36.8197C32.3496 36.6942 32.5309 36.6249 32.7188 36.625H33.5ZM30.375 49.8672C29.6424 49.3804 28.9571 48.8259 28.3282 48.2109C28.9999 47.9806 29.6831 47.7851 30.375 47.625V49.8672ZM30.375 46.0313C29.2926 46.2582 28.2295 46.569 27.1953 46.9609C25.3733 44.6786 24.3082 41.8848 24.1485 38.9688H30.375V46.0313ZM30.3985 37.1563C30.3907 37.2422 30.375 37.3203 30.375 37.4062H24.1641C24.3183 34.6054 25.3119 31.9159 27.0157 29.6875C28.428 30.0996 29.866 30.418 31.3203 30.6406C30.7623 32.7696 30.4529 34.956 30.3985 37.1563ZM28.125 28.3828C29.803 26.6622 31.8924 25.3984 34.1953 24.7109C33.1309 26.0262 32.3155 27.5247 31.7891 29.1328C30.5547 28.9517 29.3314 28.7013 28.125 28.3828ZM55.375 63.1875H32.7188C32.5116 63.1875 32.3129 63.1052 32.1664 62.9587C32.0198 62.8122 31.9375 62.6135 31.9375 62.4063C31.9375 62.1991 32.0198 62.0003 32.1664 61.8538C32.3129 61.7073 32.5116 61.625 32.7188 61.625H55.375V63.1875ZM55.375 60.0625H35.0625V36.625H55.375V60.0625ZM60.0625 59.2813C60.0644 58.6602 60.3119 58.0652 60.7511 57.626C61.1902 57.1869 61.7853 56.9394 62.4063 56.9375H63.1875V60.0625H60.0625V59.2813ZM67.875 65.5313C67.8732 66.1523 67.6257 66.7473 67.1865 67.1865C66.7474 67.6256 66.1523 67.8731 65.5313 67.875H62.4063C61.7853 67.8731 61.1902 67.6256 60.7511 67.1865C60.3119 66.7473 60.0644 66.1523 60.0625 65.5313V61.625H67.875V65.5313ZM67.875 60.0625H64.75V56.9375H65.5313C66.1523 56.9394 66.7474 57.1869 67.1865 57.626C67.6257 58.0652 67.8732 58.6602 67.875 59.2813V60.0625Z" fill="white"/>
<path d="M52.25 39.75H38.1875V41.3125H52.25V39.75Z" fill="white"/>
<path d="M52.25 43.6562H38.1875V45.2188H52.25V43.6562Z" fill="white"/>
</svg>
