<svg width="92" height="92" viewBox="0 0 92 92" fill="none" xmlns="http://www.w3.org/2000/svg">
<circle cx="46" cy="46" r="46" fill="#BCCEFF"/>
<circle cx="46" cy="46" r="37" fill="#3661D6" stroke="white" stroke-width="2"/>
<path d="M27 70H65.8073H63.1146V36.2148L45.9725 23L27 36.2148V54.9083H29.156" stroke="white" stroke-width="1.5"/>
<path d="M36.9174 38.0918L44.6789 32.0551L58.9082 43.2661V69.1376" stroke="white"/>
<g clip-path="url(#clip0)">
<path d="M59.3543 35.058C59.3528 35.0565 59.3511 35.0551 59.3496 35.0537C59.0857 34.7921 58.722 34.6422 58.3507 34.6422H58.3489C58.028 34.6422 57.7139 34.7525 57.4646 34.9525C54.0713 37.6628 50.6654 40.4604 47.3413 43.2674C46.533 43.9498 45.724 44.6377 44.9158 45.3293L35.6874 36.1011C34.7762 35.1899 33.2936 35.1901 32.3824 36.1011L27.9995 40.484C27.817 40.6666 27.817 40.9625 27.9995 41.145C28.1821 41.3275 28.478 41.3275 28.6605 41.145L31.7214 38.0842L32.3903 38.7531L29.3295 41.8139C29.1469 41.9965 29.1469 42.2924 29.3295 42.4749C29.4207 42.5662 29.5404 42.6118 29.66 42.6118C29.7796 42.6118 29.8992 42.5662 29.9904 42.4749L33.0513 39.4141L33.7202 40.083L30.6593 43.1438C30.4768 43.3264 30.4768 43.6223 30.6593 43.8049C30.7506 43.8961 30.8702 43.9417 30.9898 43.9417C31.1094 43.9417 31.2291 43.8961 31.3203 43.8049L34.3812 40.744L35.0501 41.4129L31.9893 44.4737C31.8067 44.6563 31.8067 44.9522 31.9893 45.1347C32.0805 45.226 32.2002 45.2716 32.3197 45.2716C32.4393 45.2716 32.559 45.226 32.6502 45.1347L35.7111 42.0739L36.38 42.7428L33.3191 45.8036C33.1366 45.9862 33.1366 46.2821 33.3191 46.4647C33.4104 46.5559 33.53 46.6015 33.6496 46.6015C33.7692 46.6015 33.8889 46.5559 33.9801 46.4647L37.0409 43.4038L37.7098 44.0727L34.649 47.1335C34.4665 47.3161 34.4665 47.612 34.649 47.7946C34.7402 47.8858 34.8599 47.9314 34.9795 47.9314C35.0991 47.9314 35.2187 47.8858 35.31 47.7946L38.3708 44.7338L39.0397 45.4026L35.9789 48.4635C35.7963 48.6461 35.7963 48.942 35.9789 49.1245C36.0701 49.2157 36.1897 49.2614 36.3093 49.2614C36.4289 49.2614 36.5486 49.2157 36.6398 49.1245L39.7007 46.0637L40.3696 46.7326L37.3088 49.7935C37.1262 49.9761 37.1262 50.272 37.3088 50.4545C37.4 50.5457 37.5197 50.5914 37.6393 50.5914C37.7589 50.5914 37.8785 50.5457 37.9698 50.4545L41.0306 47.3936L41.7231 48.0861C40.2879 49.3359 38.8601 50.5932 37.4484 51.852C37.4478 51.852 37.4478 51.852 37.4478 51.8527C37.0285 52.2257 36.571 52.6553 36.1198 53.0622C35.8433 53.2622 35.896 53.6138 36.0331 53.751C36.0331 53.751 36.0331 53.7516 36.0338 53.7516C36.4837 54.2963 36.7324 54.9918 36.7324 55.7109C36.7324 56.5516 36.4089 57.3381 35.8213 57.9251C35.8154 57.9311 34.4177 59.3288 34.4116 59.3348C32.379 61.4148 28.7995 59.9954 28.7974 57.0497C28.7987 55.2612 30.2431 53.7841 32.068 53.7828C33.0619 53.7834 33.9899 54.2259 34.6137 54.9956C34.7829 55.2041 35.0936 55.2267 35.2905 55.0479C35.293 55.046 35.2949 55.0442 35.2974 55.0417L35.3017 55.0379C35.5207 54.8411 35.5052 54.4864 35.2606 54.3112C34.4617 53.3814 33.2994 52.848 32.0711 52.848H32.0649C29.7279 52.848 27.8599 54.751 27.8627 57.0497C27.8606 58.7818 28.9191 60.3118 30.4851 60.9478C31.4149 61.3244 32.4335 61.3503 33.3536 61.0553C32.4766 63.7835 34.5177 66.5505 37.3545 66.5505H37.3595C39.6776 66.5505 41.5668 64.6739 41.5642 62.3463C41.5655 61.2401 41.1392 60.1962 40.3658 59.4059C40.3662 59.4054 41.3202 58.321 41.3202 58.321C43.0041 56.4472 44.6697 54.5649 46.3152 52.678L47.0194 53.3822L43.9586 56.443C43.7761 56.6256 43.7761 56.9215 43.9586 57.1041C44.0499 57.1953 44.1696 57.2409 44.2891 57.2409C44.4087 57.2409 44.5284 57.1953 44.6197 57.1041L47.6805 54.0432L48.3494 54.7121L45.2886 57.773C45.1061 57.9556 45.1061 58.2515 45.2886 58.434C45.3799 58.5252 45.4995 58.5708 45.6191 58.5708C45.7387 58.5708 45.8584 58.5252 45.9497 58.434L49.0105 55.3732L49.6793 56.042L46.6185 59.1028C46.436 59.2854 46.436 59.5813 46.6185 59.7639C46.7098 59.8551 46.8295 59.9007 46.9491 59.9007C47.0687 59.9007 47.1883 59.8551 47.2796 59.7639L50.3404 56.703L51.0093 57.3719L47.9484 60.4327C47.7659 60.6153 47.7659 60.9112 47.9484 61.0938C48.0397 61.185 48.1594 61.2306 48.279 61.2306C48.3986 61.2306 48.5182 61.185 48.6095 61.0938L51.6704 58.0329L52.3393 58.7018L49.2784 61.7626C49.0959 61.9452 49.0959 62.2411 49.2784 62.4236C49.3697 62.5149 49.4894 62.5605 49.609 62.5605C49.7286 62.5605 49.8482 62.5149 49.9395 62.4236L53.0004 59.3628L53.6692 60.0316L50.6084 63.0925C50.4258 63.2751 50.4258 63.571 50.6084 63.7535C50.6997 63.8447 50.8193 63.8904 50.9389 63.8904C51.0585 63.8904 51.1782 63.8447 51.2695 63.7535L54.3303 60.6927L54.9991 61.3615L51.9383 64.4223C51.7557 64.6049 51.7557 64.9008 51.9383 65.0834C52.0296 65.1746 52.1492 65.2202 52.2688 65.2202C52.3884 65.2202 52.5081 65.1746 52.5994 65.0834L55.6602 62.0225L56.329 62.6914L53.2682 65.7522C53.0857 65.9348 53.0857 66.2307 53.2682 66.4132C53.3595 66.5045 53.4792 66.5501 53.5988 66.5501C53.7184 66.5501 53.838 66.5045 53.9293 66.4132L57.3202 63.0223C57.3203 63.0222 57.3205 63.022 57.3207 63.0219C57.3209 63.0217 57.321 63.0216 57.3211 63.0214L58.3121 62.0303C58.7536 61.5889 58.9967 61.002 58.9967 60.3778C58.9967 59.7535 58.7536 59.1666 58.3122 58.7252L49.0736 49.4873C52.6573 45.3067 56.1315 41.1135 59.4602 36.9475C59.9119 36.3821 59.8663 35.5699 59.3543 35.058ZM32.3824 37.4232L33.0434 36.7622C33.5901 36.2155 34.4797 36.2155 35.0265 36.7622L44.2043 45.9401C43.6122 46.4488 43.0206 46.9588 42.4302 47.471L32.3824 37.4232ZM57.651 59.3867C57.9158 59.6515 58.0617 60.0036 58.0617 60.3782C58.0617 60.7527 57.9158 61.1048 57.651 61.3696L56.99 62.0306C56.6811 61.7218 47.5936 52.6342 46.9304 51.9711C47.4433 51.3808 47.9545 50.79 48.4631 50.1989L57.651 59.3867ZM40.8849 57.4058C40.6584 57.2323 40.0544 56.9321 39.9539 56.0793C39.9259 55.8438 39.7271 55.6667 39.4909 55.6667C39.2085 55.6667 38.9933 55.9119 39.0253 56.189C39.026 56.189 39.026 56.189 39.026 56.189C39.1151 56.9511 39.5289 57.6249 40.1608 58.0368C40.1939 58.0586 40.2269 58.081 40.2612 58.1059C39.937 58.4758 39.6694 58.7872 39.3625 59.1261C39.2771 59.2209 39.2335 59.3485 39.2435 59.4757C39.2528 59.6028 39.3158 59.7225 39.4149 59.8029C40.1993 60.4432 40.6287 61.3648 40.6295 62.3462C40.6282 64.1476 39.177 65.6143 37.3577 65.6156C35.5595 65.6132 34.0859 64.164 34.0859 62.3462C34.088 60.8669 35.0237 60.0747 35.0955 59.9731L36.4822 58.5864C37.2461 57.8225 37.6674 56.789 37.6674 55.7109C37.6681 54.9231 37.4425 54.1622 37.0162 53.5116C37.3822 53.177 37.7005 52.88 38.0701 52.5506L38.072 52.5481C48.2062 43.5121 57.9287 35.7446 58.1114 35.64C57.9861 35.7653 39.7495 53.994 39.6654 54.0888C39.494 54.282 39.5121 54.578 39.7046 54.7488C39.8982 54.9212 40.1947 54.901 40.3646 54.7095C40.4205 54.6458 58.6389 36.4341 58.7724 36.3006C58.7342 36.3678 51.2068 45.9023 40.8849 57.4058Z" fill="white"/>
<path d="M33.7222 55.3997C32.2479 53.9255 29.7323 54.9878 29.7324 57.0519C29.7324 57.6758 29.9757 58.2626 30.4173 58.7042C30.873 59.1597 31.4712 59.3874 32.0698 59.3874C32.6681 59.3874 33.2666 59.1596 33.7222 58.7042C34.6344 57.7922 34.6345 56.3118 33.7222 55.3997ZM33.0613 58.0431C32.5145 58.5896 31.625 58.5897 31.0782 58.0431C30.2026 57.1675 30.8157 55.6508 32.0698 55.6508C33.3274 55.6508 33.9329 57.1716 33.0613 58.0431Z" fill="white"/>
<path d="M37.3576 60.0099C36.3965 60.0099 35.571 60.5617 35.203 61.4501C34.8333 62.3427 35.0257 63.3194 35.7052 63.9987C36.1565 64.4499 36.7379 64.6865 37.3383 64.6865C37.6416 64.6865 37.9499 64.6261 38.2484 64.5024C39.1404 64.1328 39.6946 63.3067 39.6946 62.3464C39.6945 61.0581 38.6462 60.0099 37.3576 60.0099ZM37.8906 63.6388C37.4724 63.812 36.8524 63.8239 36.3661 63.3377C35.8795 62.8512 35.8924 62.2284 36.0666 61.8078C36.2394 61.3905 36.6693 60.9447 37.3575 60.9447C38.1307 60.9447 38.7597 61.5735 38.7597 62.3464C38.7597 63.0338 38.3107 63.4648 37.8906 63.6388Z" fill="white"/>
</g>
<defs>
<clipPath id="clip0">
<rect width="31.9083" height="31.9083" fill="white" transform="translate(27.8624 34.6422)"/>
</clipPath>
</defs>
</svg>
