<svg width="92" height="92" viewBox="0 0 92 92" fill="none" xmlns="http://www.w3.org/2000/svg">
<circle cx="46" cy="46" r="46" fill="#BCCEFF"/>
<circle cx="46" cy="46" r="37" fill="#3661D6" stroke="white" stroke-width="2"/>
<g clip-path="url(#clip0)">
<path d="M44.8705 42.0933H47.8794V43.688H44.8705V42.0933Z" fill="white"/>
<path d="M53.8971 42.0933H56.9059V43.688H53.8971V42.0933Z" fill="white"/>
<path d="M53.8971 48.4719H56.9059V50.0665H53.8971V48.4719Z" fill="white"/>
<path d="M44.8705 48.4719H47.8794V50.0665H44.8705V48.4719Z" fill="white"/>
<path d="M44.8705 54.8506H47.8794V56.4453H44.8705V54.8506Z" fill="white"/>
<path d="M53.8971 54.8506H56.9059V56.4453H53.8971V54.8506Z" fill="white"/>
<path d="M53.1448 65.2162H54.6493V66.8109H53.1448V65.2162Z" fill="white"/>
<path d="M65.9324 34.4386L45.6227 22L25.3131 34.4386V54.0533H26.8175V35.3952L45.6227 23.9135L64.428 35.3952V68.4055H56.9059C57.282 67.927 57.5075 67.3687 57.5828 66.8108H60.6669C61.9455 66.8108 62.9235 65.774 62.9235 64.4188V60.432C62.9235 59.0764 61.9455 58.04 60.6669 58.04V41.2958C60.6669 40.02 59.6888 38.9038 58.4856 38.9038H43.2908C42.0872 38.9038 41.1095 40.02 41.1095 41.2958V58.04H39.605V44.4852H38.1006V46.0799H34.4898C33.6627 46.0799 32.9105 46.558 32.5343 47.3553L27.1183 58.1194C26.8928 58.4387 26.8175 58.8374 26.8175 59.236V64.4188C26.8175 65.774 27.7952 66.8108 29.0741 66.8108H30.6538C30.804 67.3687 31.0299 67.927 31.3307 68.4055H23.0564V70.0002H68.189V68.4055H65.9324V34.4386ZM38.0253 66.8108H50.2113C50.3615 67.3687 50.5874 67.927 50.8882 68.4055H37.3484C37.6492 67.927 37.8747 67.3687 38.0253 66.8108ZM51.6404 66.0134C51.6404 64.6578 52.6181 63.6214 53.897 63.6214C55.1756 63.6214 56.1537 64.6578 56.1537 66.0134C56.1537 67.3687 55.1756 68.4055 53.897 68.4055C52.6181 68.4055 51.6404 67.3687 51.6404 66.0134ZM51.6404 58.04V53.256H59.1625V58.04H51.6404ZM51.6404 46.8772H59.1625V51.6613H51.6404V46.8772ZM50.136 51.6613H42.6139V46.8772H50.136V51.6613ZM59.1625 41.2958V45.2825H51.6404V40.4985H58.4856C58.8617 40.4985 59.1625 40.8972 59.1625 41.2958ZM43.2908 40.4985H50.136V45.2825H42.6139V41.2958C42.6139 40.8972 42.9147 40.4985 43.2908 40.4985ZM42.6139 53.256H50.136V58.04H42.6139V53.256ZM33.8129 48.0732C33.9635 47.8338 34.189 47.6746 34.4898 47.6746H38.1006V58.04H28.8482L33.8129 48.0732ZM28.3219 64.4188V59.6347H60.6669C61.1183 59.6347 61.4191 59.9536 61.4191 60.432V64.4188C61.4191 64.8969 61.1183 65.2161 60.6669 65.2161H57.5828C57.1314 63.0631 55.1756 61.6281 53.1448 62.1062C51.6404 62.4254 50.5121 63.6214 50.2113 65.2161H38.0253C37.5739 63.0631 35.6181 61.6281 33.5874 62.1062C32.083 62.4254 30.9546 63.6214 30.6538 65.2161H29.0741C28.6227 65.2161 28.3219 64.8969 28.3219 64.4188ZM32.083 66.0134C32.083 64.6578 33.0607 63.6214 34.3396 63.6214C35.6181 63.6214 36.5962 64.6578 36.5962 66.0134C36.5962 67.3687 35.6181 68.4055 34.3396 68.4055C33.0607 68.4055 32.083 67.3687 32.083 66.0134Z" fill="white"/>
<path d="M33.5875 65.2162H35.0919V66.8109H33.5875V65.2162Z" fill="white"/>
<path d="M50.136 29.6546L45.6227 26.7841L41.1095 29.6546V36.5118H50.136V29.6546ZM42.6139 30.6111L44.8705 29.1761V34.9171H42.6139V30.6111ZM48.6316 34.9171H46.375V29.1761L48.6316 30.6111V34.9171Z" fill="white"/>
</g>
<defs>
<clipPath id="clip0">
<rect width="45.283" height="48" fill="white" transform="translate(23 22)"/>
</clipPath>
</defs>
</svg>
