<svg width="92" height="92" viewBox="0 0 92 92" fill="none" xmlns="http://www.w3.org/2000/svg">
<circle cx="46" cy="46" r="46" fill="#BCCEFF"/>
<circle cx="46" cy="46" r="37" fill="#3661D6" stroke="white" stroke-width="2"/>
<path d="M63.7402 29.8223L55.9277 22.0098C55.781 21.8634 55.5822 21.7812 55.375 21.7813H28.8125C28.6053 21.7813 28.4066 21.8636 28.2601 22.0101C28.1136 22.1566 28.0312 22.3553 28.0312 22.5625V69.4375C28.0312 69.6447 28.1136 69.8434 28.2601 69.9899C28.4066 70.1364 28.6053 70.2188 28.8125 70.2188H63.1875C63.3947 70.2188 63.5934 70.1364 63.7399 69.9899C63.8864 69.8434 63.9688 69.6447 63.9688 69.4375V30.375C63.9688 30.1678 63.8866 29.969 63.7402 29.8223ZM56.1562 24.4482L61.3018 29.5938H56.1562V24.4482ZM62.4062 68.6562H29.5938V23.3438H54.5938V30.375C54.5938 30.5822 54.6761 30.7809 54.8226 30.9274C54.9691 31.0739 55.1678 31.1562 55.375 31.1562H62.4062V68.6562Z" fill="white"/>
<path d="M57.7188 66.3125H49.125C48.9178 66.3125 48.7191 66.3948 48.5726 66.5413C48.4261 66.6878 48.3438 66.8865 48.3438 67.0938C48.3438 67.301 48.4261 67.4997 48.5726 67.6462C48.7191 67.7927 48.9178 67.875 49.125 67.875H57.7188C57.926 67.875 58.1247 67.7927 58.2712 67.6462C58.4177 67.4997 58.5 67.301 58.5 67.0938C58.5 66.8865 58.4177 66.6878 58.2712 66.5413C58.1247 66.3948 57.926 66.3125 57.7188 66.3125Z" fill="white"/>
<path d="M60.8438 66.3125H60.0625C59.8553 66.3125 59.6566 66.3948 59.5101 66.5413C59.3636 66.6878 59.2812 66.8865 59.2812 67.0938C59.2812 67.301 59.3636 67.4997 59.5101 67.6462C59.6566 67.7927 59.8553 67.875 60.0625 67.875H60.8438C61.051 67.875 61.2497 67.7927 61.3962 67.6462C61.5427 67.4997 61.625 67.301 61.625 67.0938C61.625 66.8865 61.5427 66.6878 61.3962 66.5413C61.2497 66.3948 61.051 66.3125 60.8438 66.3125Z" fill="white"/>
<path d="M31.9375 26.4688H38.9688C39.176 26.4688 39.3747 26.3864 39.5212 26.2399C39.6677 26.0934 39.75 25.8947 39.75 25.6875C39.75 25.4803 39.6677 25.2816 39.5212 25.1351C39.3747 24.9886 39.176 24.9062 38.9688 24.9062H31.9375C31.7303 24.9062 31.5316 24.9886 31.3851 25.1351C31.2386 25.2816 31.1562 25.4803 31.1562 25.6875C31.1562 25.8947 31.2386 26.0934 31.3851 26.2399C31.5316 26.3864 31.7303 26.4688 31.9375 26.4688Z" fill="white"/>
<path d="M35.0625 28.0313C35.0625 27.824 34.9802 27.6253 34.8337 27.4788C34.6872 27.3323 34.4885 27.25 34.2812 27.25H31.9375C31.7303 27.25 31.5316 27.3323 31.3851 27.4788C31.2386 27.6253 31.1562 27.824 31.1562 28.0313C31.1562 28.2385 31.2386 28.4372 31.3851 28.5837C31.5316 28.7302 31.7303 28.8125 31.9375 28.8125H34.2812C34.4885 28.8125 34.6872 28.7302 34.8337 28.5837C34.9802 28.4372 35.0625 28.2385 35.0625 28.0313Z" fill="white"/>
<path d="M35.0625 35.0625H33.5C33.2928 35.0625 33.0941 35.1448 32.9476 35.2913C32.8011 35.4378 32.7188 35.6365 32.7188 35.8438V37.4062C32.7188 37.6135 32.8011 37.8122 32.9476 37.9587C33.0941 38.1052 33.2928 38.1875 33.5 38.1875C33.7072 38.1875 33.9059 38.1052 34.0524 37.9587C34.1989 37.8122 34.2812 37.6135 34.2812 37.4062V36.625H35.0625C35.2697 36.625 35.4684 36.5427 35.6149 36.3962C35.7614 36.2497 35.8438 36.051 35.8438 35.8438C35.8438 35.6365 35.7614 35.4378 35.6149 35.2913C35.4684 35.1448 35.2697 35.0625 35.0625 35.0625Z" fill="white"/>
<path d="M56.9375 36.625H57.7188V37.4062C57.7188 37.6135 57.8011 37.8122 57.9476 37.9587C58.0941 38.1052 58.2928 38.1875 58.5 38.1875C58.7072 38.1875 58.9059 38.1052 59.0524 37.9587C59.1989 37.8122 59.2812 37.6135 59.2812 37.4062V35.8438C59.2812 35.6365 59.1989 35.4378 59.0524 35.2913C58.9059 35.1448 58.7072 35.0625 58.5 35.0625H56.9375C56.7303 35.0625 56.5316 35.1448 56.3851 35.2913C56.2386 35.4378 56.1562 35.6365 56.1562 35.8438C56.1562 36.051 56.2386 36.2497 56.3851 36.3962C56.5316 36.5427 56.7303 36.625 56.9375 36.625Z" fill="white"/>
<path d="M59.2812 59.2812C59.2812 59.074 59.1989 58.8753 59.0524 58.7288C58.9059 58.5823 58.7072 58.5 58.5 58.5C58.2928 58.5 58.0941 58.5823 57.9476 58.7288C57.8011 58.8753 57.7188 59.074 57.7188 59.2812V60.0625H56.9375C56.7303 60.0625 56.5316 60.1448 56.3851 60.2913C56.2386 60.4378 56.1562 60.6365 56.1562 60.8438C56.1562 61.051 56.2386 61.2497 56.3851 61.3962C56.5316 61.5427 56.7303 61.625 56.9375 61.625H58.5C58.7072 61.625 58.9059 61.5427 59.0524 61.3962C59.1989 61.2497 59.2812 61.051 59.2812 60.8438V59.2812Z" fill="white"/>
<path d="M35.0625 60.0625H34.2812V59.2812C34.2812 59.074 34.1989 58.8753 34.0524 58.7288C33.9059 58.5823 33.7072 58.5 33.5 58.5C33.2928 58.5 33.0941 58.5823 32.9476 58.7288C32.8011 58.8753 32.7188 59.074 32.7188 59.2812V60.8438C32.7188 61.051 32.8011 61.2497 32.9476 61.3962C33.0941 61.5427 33.2928 61.625 33.5 61.625H35.0625C35.2697 61.625 35.4684 61.5427 35.6149 61.3962C35.7614 61.2497 35.8438 61.051 35.8438 60.8438C35.8438 60.6365 35.7614 60.4378 35.6149 60.2913C35.4684 60.1448 35.2697 60.0625 35.0625 60.0625Z" fill="white"/>
<path d="M52.3437 36.0244C50.6367 35.4043 48.3838 35.0625 46 35.0625C43.6162 35.0625 41.3633 35.4043 39.6562 36.0244C37.1514 36.9355 36.625 38.1289 36.625 38.9688V57.7188C36.625 58.5586 37.1514 59.752 39.6562 60.6631C41.3633 61.2832 43.6162 61.625 46 61.625C48.3838 61.625 50.6367 61.2832 52.3437 60.6631C54.8486 59.752 55.375 58.5586 55.375 57.7188V38.9688C55.375 38.1289 54.8486 36.9355 52.3437 36.0244ZM51.8096 59.1943C50.2695 59.7539 48.207 60.0625 46 60.0625C43.793 60.0625 41.7305 59.7539 40.1904 59.1943C38.8066 58.6914 38.1875 58.0908 38.1875 57.7188C38.1875 57.3467 38.8066 56.7461 40.1904 56.2432C41.7305 55.6836 43.793 55.375 46 55.375C47.3103 55.3687 48.6183 55.4871 49.9062 55.7285V57.7188C49.9062 57.926 49.9886 58.1247 50.1351 58.2712C50.2816 58.4177 50.4803 58.5 50.6875 58.5C50.8947 58.5 51.0934 58.4177 51.2399 58.2712C51.3864 58.1247 51.4688 57.926 51.4688 57.7188V56.127C51.585 56.1641 51.6992 56.2031 51.8096 56.2432C53.1934 56.7461 53.8125 57.3467 53.8125 57.7188C53.8125 58.0908 53.1934 58.6914 51.8096 59.1943ZM53.8125 55.4639C53.3471 55.1856 52.8551 54.9547 52.3437 54.7744C52.0664 54.6738 51.7734 54.5811 51.4688 54.4951V49.125C51.4688 48.9178 51.3864 48.7191 51.2399 48.5726C51.0934 48.4261 50.8947 48.3438 50.6875 48.3438C50.4803 48.3438 50.2816 48.4261 50.1351 48.5726C49.9886 48.7191 49.9062 48.9178 49.9062 49.125V54.1406C48.6161 53.9183 47.3091 53.8085 46 53.8125C43.6162 53.8125 41.3633 54.1543 39.6562 54.7744C39.1449 54.9547 38.6529 55.1856 38.1875 55.4639V41.2236C38.6529 41.5019 39.1449 41.7328 39.6562 41.9131C41.3633 42.5332 43.6162 42.875 46 42.875C48.3838 42.875 50.6367 42.5332 52.3437 41.9131C52.8551 41.7328 53.3471 41.5019 53.8125 41.2236V55.4639ZM51.8096 40.4443C50.2695 41.0039 48.207 41.3125 46 41.3125C43.793 41.3125 41.7305 41.0039 40.1904 40.4443C38.8066 39.9414 38.1875 39.3408 38.1875 38.9688C38.1875 38.5967 38.8066 37.9961 40.1904 37.4932C41.7305 36.9336 43.793 36.625 46 36.625C48.207 36.625 50.2695 36.9336 51.8096 37.4932C53.1934 37.9961 53.8125 38.5967 53.8125 38.9688C53.8125 39.3408 53.1934 39.9414 51.8096 40.4443Z" fill="white"/>
<path d="M51.4688 46C51.4688 45.7928 51.3864 45.5941 51.2399 45.4476C51.0934 45.3011 50.8947 45.2188 50.6875 45.2188C50.4803 45.2188 50.2816 45.3011 50.1351 45.4476C49.9886 45.5941 49.9062 45.7928 49.9062 46V46.7812C49.9062 46.9885 49.9886 47.1872 50.1351 47.3337C50.2816 47.4802 50.4803 47.5625 50.6875 47.5625C50.8947 47.5625 51.0934 47.4802 51.2399 47.3337C51.3864 47.1872 51.4688 46.9885 51.4688 46.7812V46Z" fill="white"/>
</svg>
