<svg width="16" height="16" viewBox="0 0 16 16" fill="none" xmlns="http://www.w3.org/2000/svg">
<path d="M1.20805 1.09829L1.07641 1.26626C0.85881 1.54392 0.675727 1.86573 0.539048 2.2142C0.412163 2.54885 0.334409 2.86473 0.298907 3.17898L0.298696 3.18085C-0.0133789 5.76796 1.15252 8.16654 4.49153 11.5056C9.04632 16.0601 12.6919 15.7166 12.8217 15.7032C13.1508 15.6637 13.4662 15.5851 13.7882 15.4601C14.1337 15.3251 14.4557 15.1422 14.7336 14.9247L14.8671 14.8202L15.4324 14.2667C15.8491 13.8481 15.8516 13.1917 15.4643 12.8031L12.9939 10.3325C12.9939 10.3325 12.9938 10.3324 12.9937 10.3323C12.605 9.94544 11.9483 9.94855 11.5307 10.3663L11.5306 10.3664L10.2857 11.611L10.1529 11.7438L9.9883 11.6532C9.90923 11.6096 9.82744 11.5641 9.74151 11.5159C9.74133 11.5158 9.74115 11.5157 9.74097 11.5156L9.86332 11.2975C9.0772 10.862 8.00125 10.2649 6.86904 9.1319L1.20805 1.09829ZM1.20805 1.09829L1.73381 0.569513L1.20805 1.09829Z" stroke="black" stroke-width="0.5"/>
</svg>
