<svg width="59" height="54" viewBox="0 0 59 54" fill="none" xmlns="http://www.w3.org/2000/svg">
<g clip-path="url(#clip0)">
<path d="M32.913 0.532959C18.9984 0.532959 7.67944 11.853 7.67944 25.7665C7.67944 39.68 18.9984 51 32.913 51C46.8276 51 58.1465 39.68 58.1465 25.7665C58.1465 11.853 46.8276 0.532959 32.913 0.532959ZM42.9444 26.6505L28.2249 36.1131C28.0524 36.225 27.8532 36.2805 27.656 36.2805C27.4835 36.2805 27.309 36.2373 27.1529 36.1521C26.814 35.9673 26.6046 35.6141 26.6046 35.229V16.3039C26.6046 15.9189 26.814 15.5656 27.1529 15.3808C27.4856 15.1981 27.9024 15.2093 28.2249 15.4198L42.9444 24.8824C43.2442 25.0754 43.427 25.4092 43.427 25.7665C43.427 26.1238 43.2442 26.4574 42.9444 26.6505Z" fill="white"/>
</g>
<defs>
<clipPath id="clip0">
<rect width="58.2948" height="53.2148" fill="white" transform="translate(0.146484 0.532959)"/>
</clipPath>
</defs>
</svg>
