<svg width="19" height="13" viewBox="0 0 19 13" fill="none" xmlns="http://www.w3.org/2000/svg">
<path d="M8.93584 9.28792L9.1005 9.43204L9.26516 9.28792L11.3539 7.4597L17.3819 12.6303C17.2357 12.7065 17.069 12.75 16.8918 12.75H1.30923C1.13081 12.75 0.963035 12.7064 0.815803 12.6298L6.84709 7.45965L8.93584 9.28792Z" stroke="black" stroke-width="0.5"/>
<path d="M16.8919 0.25C17.0715 0.25 17.239 0.293272 17.3858 0.369664L9.10058 7.47111L0.816934 0.371369C0.963928 0.293854 1.13127 0.25 1.30932 0.25H16.8919Z" stroke="black" stroke-width="0.5"/>
<path d="M0.25 1.68967L5.89965 6.60053L0.25 11.4015V1.68967Z" stroke="black" stroke-width="0.5"/>
<path d="M17.9509 1.6865V11.402L12.3011 6.60094L17.9509 1.6865Z" stroke="black" stroke-width="0.5"/>
</svg>
